<svg width="24" height="24" viewBox="0 0 24 24" fill="none" xmlns="http://www.w3.org/2000/svg">
<g clip-path="url(#clip0)">
<path d="M16.0752 8.99346C15.8524 8.77048 15.5877 8.59359 15.2965 8.47291C15.0052 8.35223 14.6931 8.29012 14.3778 8.29012C14.0625 8.29012 13.7503 8.35223 13.4591 8.47291C13.1678 8.59359 12.9032 8.77048 12.6803 8.99346L12.2178 9.456L11.7552 8.99346C11.3051 8.54326 10.6945 8.29035 10.0578 8.29035C9.42112 8.29035 8.81053 8.54326 8.36034 8.99346C7.91014 9.44365 7.65723 10.0542 7.65723 10.6909C7.65723 11.3276 7.91014 11.9382 8.36034 12.3884L8.82288 12.8509L12.2178 16.2458L15.6127 12.8509L16.0752 12.3884C16.2982 12.1655 16.4751 11.9009 16.5958 11.6096C16.7165 11.3184 16.7786 11.0062 16.7786 10.6909C16.7786 10.3756 16.7165 10.0635 16.5958 9.77221C16.4751 9.48096 16.2982 9.21633 16.0752 8.99346V8.99346Z" stroke="#008080" stroke-linecap="round" stroke-linejoin="round"/>
</g>
<circle cx="12" cy="12" r="11.5" stroke="#008080"/>
<defs>
<clipPath id="clip0">
<rect width="10.4727" height="10.4727" fill="white" transform="translate(6.98145 6.98181)"/>
</clipPath>
</defs>
</svg>
