<svg width="170" height="50" viewBox="0 0 170 50" fill="none" xmlns="http://www.w3.org/2000/svg">
<path d="M163.952 50H5.95504C2.67215 50 0 47.34 0 44.0837V5.9075C0 2.65 2.67215 0 5.95504 0H163.952C167.233 0 170 2.65 170 5.9075V44.0837C170 47.34 167.233 50 163.952 50Z" fill="#A6A6A6"/>
<path d="M168.781 44.0851C168.781 46.7301 166.623 48.8726 163.953 48.8726H5.95502C3.28665 48.8726 1.12073 46.7301 1.12073 44.0851V5.9063C1.12073 3.26255 3.28665 1.11255 5.95502 1.11255H163.952C166.623 1.11255 168.78 3.26255 168.78 5.9063L168.781 44.0851Z" fill="black"/>
<path d="M37.939 24.73C37.9025 20.7013 41.2622 18.7413 41.4158 18.65C39.513 15.8963 36.5639 15.52 35.5275 15.49C33.0505 15.2313 30.6479 16.9613 29.3861 16.9613C28.0991 16.9613 26.1561 15.515 24.0619 15.5575C21.3671 15.5988 18.8461 17.1475 17.4634 19.5525C14.6099 24.4563 16.7381 31.6625 19.4719 35.6262C20.8395 37.5675 22.4375 39.735 24.5291 39.6587C26.5754 39.575 27.3398 38.3637 29.8092 38.3637C32.2559 38.3637 32.9737 39.6587 35.1069 39.61C37.303 39.575 38.6857 37.66 40.0054 35.7013C41.5858 33.4763 42.2205 31.285 42.2456 31.1725C42.194 31.155 37.9805 29.5588 37.939 24.73Z" fill="white"/>
<path d="M33.9094 12.8825C35.01 11.5162 35.763 9.65749 35.554 7.77124C33.961 7.84124 31.9688 8.86499 30.8217 10.2012C29.8067 11.3787 28.9 13.3087 29.1343 15.1237C30.9237 15.2562 32.7609 14.2275 33.9094 12.8825Z" fill="white"/>
<path d="M67.5529 39.3799H64.6931L63.1266 34.4936H57.6816L56.1894 39.3799H53.4052L58.7998 22.7449H62.1318L67.5529 39.3799ZM62.6544 32.4436L61.2377 28.0999C61.0879 27.6561 60.8071 26.6111 60.3928 24.9661H60.3424C60.1774 25.6736 59.9117 26.7186 59.5466 28.0999L58.1551 32.4436H62.6544Z" fill="white"/>
<path d="M81.4262 33.2349C81.4262 35.2749 80.8708 36.8874 79.7602 38.0712C78.7654 39.1249 77.53 39.6512 76.0554 39.6512C74.4637 39.6512 73.3203 39.0837 72.624 37.9487H72.5736V44.2674H69.8888V31.3337C69.8888 30.0512 69.8548 28.7349 69.7894 27.3849H72.1505L72.3003 29.2862H72.3507C73.246 27.8537 74.6048 27.1387 76.4282 27.1387C77.8537 27.1387 79.0437 27.6974 79.9957 28.8162C80.9502 29.9362 81.4262 31.4087 81.4262 33.2349ZM78.6911 33.3324C78.6911 32.1649 78.4266 31.2024 77.8952 30.4449C77.3147 29.6549 76.5352 29.2599 75.558 29.2599C74.8957 29.2599 74.2937 29.4799 73.756 29.9137C73.2171 30.3512 72.8645 30.9224 72.6995 31.6299C72.6164 31.9599 72.5748 32.2299 72.5748 32.4424V34.4424C72.5748 35.3149 72.8443 36.0512 73.3833 36.6524C73.9223 37.2537 74.6224 37.5537 75.4837 37.5537C76.4949 37.5537 77.282 37.1662 77.8448 36.3937C78.409 35.6199 78.6911 34.5999 78.6911 33.3324Z" fill="white"/>
<path d="M95.3246 33.2349C95.3246 35.2749 94.7693 36.8874 93.6574 38.0712C92.6638 39.1249 91.4285 39.6512 89.9539 39.6512C88.3622 39.6512 87.2188 39.0837 86.5237 37.9487H86.4733V44.2674H83.7886V31.3337C83.7886 30.0512 83.7546 28.7349 83.6891 27.3849H86.0502L86.2001 29.2862H86.2504C87.1445 27.8537 88.5032 27.1387 90.3279 27.1387C91.7521 27.1387 92.9421 27.6974 93.8967 28.8162C94.8474 29.9362 95.3246 31.4087 95.3246 33.2349ZM92.5895 33.3324C92.5895 32.1649 92.3238 31.2024 91.7924 30.4449C91.2119 29.6549 90.4349 29.2599 89.4565 29.2599C88.7929 29.2599 88.1922 29.4799 87.6532 29.9137C87.1143 30.3512 86.7629 30.9224 86.598 31.6299C86.5161 31.9599 86.4733 32.2299 86.4733 32.4424V34.4424C86.4733 35.3149 86.7428 36.0512 87.2792 36.6524C87.8182 37.2524 88.5184 37.5537 89.3822 37.5537C90.3934 37.5537 91.1804 37.1662 91.7433 36.3937C92.3075 35.6199 92.5895 34.5999 92.5895 33.3324Z" fill="white"/>
<path d="M110.864 34.715C110.864 36.13 110.369 37.2812 109.375 38.17C108.284 39.1412 106.764 39.6262 104.811 39.6262C103.007 39.6262 101.562 39.2812 100.467 38.59L101.089 36.3687C102.268 37.0762 103.561 37.4312 104.971 37.4312C105.982 37.4312 106.769 37.2037 107.334 36.7512C107.897 36.2987 108.178 35.6912 108.178 34.9337C108.178 34.2587 107.946 33.69 107.481 33.2287C107.019 32.7675 106.247 32.3387 105.169 31.9425C102.235 30.8562 100.77 29.265 100.77 27.1725C100.77 25.805 101.283 24.6837 102.312 23.8112C103.337 22.9375 104.705 22.5012 106.415 22.5012C107.94 22.5012 109.207 22.765 110.218 23.2912L109.547 25.4637C108.602 24.9537 107.534 24.6987 106.339 24.6987C105.395 24.6987 104.657 24.93 104.128 25.39C103.681 25.8012 103.457 26.3025 103.457 26.8962C103.457 27.5537 103.713 28.0975 104.226 28.525C104.673 28.92 105.486 29.3475 106.664 29.8087C108.106 30.385 109.165 31.0587 109.846 31.8312C110.525 32.6012 110.864 33.565 110.864 34.715Z" fill="white"/>
<path d="M119.74 29.385H116.781V35.2087C116.781 36.69 117.302 37.43 118.348 37.43C118.827 37.43 119.225 37.3887 119.54 37.3062L119.614 39.33C119.086 39.5262 118.389 39.625 117.527 39.625C116.466 39.625 115.638 39.3037 115.04 38.6625C114.444 38.02 114.144 36.9425 114.144 35.4287V29.3825H112.381V27.3825H114.144V25.1862L116.781 24.3962V27.3825H119.74V29.385Z" fill="white"/>
<path d="M133.092 33.2839C133.092 35.1276 132.561 36.6414 131.501 37.8251C130.389 39.0439 128.913 39.6514 127.073 39.6514C125.3 39.6514 123.888 39.0676 122.836 37.9001C121.783 36.7326 121.257 35.2589 121.257 33.4826C121.257 31.6239 121.798 30.1014 122.885 28.9176C123.969 27.7326 125.432 27.1401 127.272 27.1401C129.045 27.1401 130.472 27.7239 131.549 28.8926C132.579 30.0264 133.092 31.4901 133.092 33.2839ZM130.307 33.3701C130.307 32.2639 130.069 31.3151 129.587 30.5239C129.024 29.5664 128.219 29.0889 127.176 29.0889C126.097 29.0889 125.277 29.5676 124.715 30.5239C124.232 31.3164 123.994 32.2801 123.994 33.4201C123.994 34.5264 124.232 35.4751 124.715 36.2651C125.295 37.2226 126.106 37.7001 127.152 37.7001C128.177 37.7001 128.982 37.2126 129.563 36.2401C130.058 35.4339 130.307 34.4751 130.307 33.3701Z" fill="white"/>
<path d="M141.819 29.7287C141.553 29.6799 141.27 29.6549 140.973 29.6549C140.028 29.6549 139.298 30.0087 138.784 30.7174C138.337 31.3424 138.113 32.1324 138.113 33.0862V39.3799H135.43L135.455 31.1624C135.455 29.7799 135.421 28.5212 135.354 27.3862H137.692L137.791 29.6812H137.865C138.148 28.8924 138.595 28.2574 139.207 27.7812C139.805 27.3524 140.451 27.1387 141.148 27.1387C141.396 27.1387 141.62 27.1562 141.819 27.1874V29.7287Z" fill="white"/>
<path d="M153.826 32.815C153.826 33.2925 153.795 33.695 153.728 34.0237H145.674C145.705 35.2087 146.094 36.115 146.842 36.74C147.521 37.2987 148.399 37.5787 149.477 37.5787C150.669 37.5787 151.757 37.39 152.736 37.0112L153.156 38.8612C152.013 39.3562 150.663 39.6025 149.105 39.6025C147.231 39.6025 145.76 39.055 144.69 37.9612C143.622 36.8675 143.087 35.3987 143.087 33.5562C143.087 31.7475 143.584 30.2412 144.581 29.04C145.623 27.7575 147.032 27.1162 148.805 27.1162C150.547 27.1162 151.865 27.7575 152.761 29.04C153.47 30.0587 153.826 31.3187 153.826 32.815ZM151.266 32.1237C151.284 31.3337 151.109 30.6512 150.745 30.075C150.28 29.3337 149.566 28.9637 148.605 28.9637C147.727 28.9637 147.013 29.325 146.468 30.05C146.021 30.6262 145.755 31.3175 145.674 32.1225H151.266V32.1237Z" fill="white"/>
<path d="M61.7666 12.5114C61.7666 13.9826 61.3221 15.0901 60.4344 15.8339C59.6121 16.5201 58.4435 16.8639 56.9298 16.8639C56.1793 16.8639 55.5371 16.8314 54.9994 16.7664V8.72762C55.7008 8.61512 56.4564 8.55762 57.2724 8.55762C58.7142 8.55762 59.8009 8.86887 60.5338 9.49137C61.3549 10.1951 61.7666 11.2014 61.7666 12.5114ZM60.3752 12.5476C60.3752 11.5939 60.1208 10.8626 59.6121 10.3526C59.1033 9.84387 58.3604 9.58887 57.3819 9.58887C56.9664 9.58887 56.6125 9.61637 56.3191 9.67387V15.7851C56.4815 15.8101 56.7787 15.8214 57.2106 15.8214C58.2206 15.8214 59.0001 15.5426 59.5491 14.9851C60.0981 14.4276 60.3752 13.6151 60.3752 12.5476Z" fill="white"/>
<path d="M69.1446 13.7963C69.1446 14.7026 68.884 15.4451 68.3626 16.0276C67.8161 16.6263 67.092 16.9251 66.1879 16.9251C65.3165 16.9251 64.6226 16.6388 64.1051 16.0638C63.5888 15.4901 63.3306 14.7663 63.3306 13.8938C63.3306 12.9813 63.5963 12.2326 64.1303 11.6513C64.6642 11.0701 65.382 10.7788 66.2861 10.7788C67.1575 10.7788 67.8577 11.0651 68.3878 11.6388C68.8915 12.1963 69.1446 12.9163 69.1446 13.7963ZM67.7758 13.8388C67.7758 13.2951 67.6574 12.8288 67.422 12.4401C67.1449 11.9701 66.7508 11.7351 66.2383 11.7351C65.7081 11.7351 65.3051 11.9701 65.0281 12.4401C64.7914 12.8288 64.6743 13.3026 64.6743 13.8626C64.6743 14.4063 64.7926 14.8726 65.0281 15.2613C65.314 15.7313 65.7119 15.9663 66.2257 15.9663C66.7294 15.9663 67.1248 15.7276 67.4094 15.2488C67.6537 14.8526 67.7758 14.3826 67.7758 13.8388Z" fill="white"/>
<path d="M79.0374 10.8989L77.18 16.7914H75.9711L75.2017 14.2327C75.0065 13.5939 74.8478 12.9589 74.7244 12.3289H74.7005C74.5859 12.9764 74.4272 13.6102 74.2232 14.2327L73.406 16.7914H72.1832L70.4366 10.8989H71.7929L72.4641 13.7002C72.6265 14.3627 72.76 14.9939 72.867 15.5914H72.8909C72.9892 15.0989 73.1516 14.4714 73.3808 13.7127L74.2232 10.9002H75.2987L76.1058 13.6527C76.301 14.3239 76.4597 14.9702 76.5818 15.5927H76.6184C76.7078 14.9864 76.8425 14.3402 77.0213 13.6527L77.7416 10.9002H79.0374V10.8989Z" fill="white"/>
<path d="M85.8789 16.7914H84.5592V13.4164C84.5592 12.3764 84.1613 11.8564 83.3629 11.8564C82.9713 11.8564 82.6552 11.9989 82.4097 12.2851C82.1666 12.5714 82.0432 12.9089 82.0432 13.2951V16.7901H80.7235V12.5826C80.7235 12.0651 80.7071 11.5039 80.6757 10.8964H81.8354L81.8971 11.8176H81.9337C82.0873 11.5314 82.3165 11.2951 82.6174 11.1064C82.9751 10.8864 83.3755 10.7751 83.8137 10.7751C84.3678 10.7751 84.8287 10.9526 85.1951 11.3089C85.651 11.7451 85.8789 12.3964 85.8789 13.2614V16.7914Z" fill="white"/>
<path d="M89.5182 16.7913H88.1997V8.19507H89.5182V16.7913Z" fill="white"/>
<path d="M97.2879 13.7963C97.2879 14.7026 97.0272 15.4451 96.5059 16.0276C95.9594 16.6263 95.234 16.9251 94.3311 16.9251C93.4585 16.9251 92.7646 16.6388 92.2483 16.0638C91.732 15.4901 91.4739 14.7663 91.4739 13.8938C91.4739 12.9813 91.7396 12.2326 92.2735 11.6513C92.8074 11.0701 93.5252 10.7788 94.4281 10.7788C95.3008 10.7788 95.9997 11.0651 96.5311 11.6388C97.0348 12.1963 97.2879 12.9163 97.2879 13.7963ZM95.9178 13.8388C95.9178 13.2951 95.7994 12.8288 95.564 12.4401C95.2882 11.9701 94.8928 11.7351 94.3815 11.7351C93.8501 11.7351 93.4471 11.9701 93.1714 12.4401C92.9346 12.8288 92.8175 13.3026 92.8175 13.8626C92.8175 14.4063 92.9359 14.8726 93.1714 15.2613C93.4572 15.7313 93.8551 15.9663 94.3689 15.9663C94.8726 15.9663 95.2668 15.7276 95.5514 15.2488C95.7969 14.8526 95.9178 14.3826 95.9178 13.8388Z" fill="white"/>
<path d="M103.675 16.7913H102.49L102.392 16.1126H102.355C101.95 16.6538 101.372 16.9251 100.621 16.9251C100.061 16.9251 99.6074 16.7463 99.2661 16.3913C98.9563 16.0688 98.8015 15.6676 98.8015 15.1913C98.8015 14.4713 99.1037 13.9226 99.7119 13.5426C100.319 13.1626 101.173 12.9763 102.272 12.9851V12.8751C102.272 12.0988 101.861 11.7113 101.039 11.7113C100.454 11.7113 99.9373 11.8576 99.4915 12.1476L99.2233 11.2876C99.7749 10.9488 100.456 10.7788 101.26 10.7788C102.811 10.7788 103.589 11.5913 103.589 13.2163V15.3863C103.589 15.9751 103.618 16.4438 103.675 16.7913ZM102.305 14.7663V13.8576C100.849 13.8326 100.121 14.2288 100.121 15.0451C100.121 15.3526 100.204 15.5826 100.374 15.7363C100.544 15.8901 100.761 15.9663 101.019 15.9663C101.309 15.9663 101.579 15.8751 101.826 15.6938C102.074 15.5113 102.227 15.2801 102.283 14.9963C102.297 14.9326 102.305 14.8551 102.305 14.7663Z" fill="white"/>
<path d="M111.174 16.7913H110.003L109.941 15.8451H109.904C109.53 16.5651 108.893 16.9251 107.998 16.9251C107.283 16.9251 106.687 16.6463 106.215 16.0888C105.742 15.5313 105.507 14.8076 105.507 13.9188C105.507 12.9651 105.763 12.1926 106.276 11.6026C106.774 11.0526 107.383 10.7776 108.109 10.7776C108.906 10.7776 109.464 11.0438 109.781 11.5776H109.806V8.19507H111.127V15.2038C111.127 15.7776 111.142 16.3063 111.174 16.7913ZM109.806 14.3063V13.3238C109.806 13.1538 109.794 13.0163 109.77 12.9113C109.695 12.5963 109.535 12.3313 109.292 12.1176C109.047 11.9038 108.751 11.7963 108.41 11.7963C107.917 11.7963 107.532 11.9901 107.249 12.3788C106.968 12.7676 106.825 13.2638 106.825 13.8701C106.825 14.4526 106.96 14.9251 107.231 15.2888C107.517 15.6763 107.902 15.8701 108.384 15.8701C108.818 15.8701 109.164 15.7088 109.427 15.3851C109.681 15.0863 109.806 14.7263 109.806 14.3063Z" fill="white"/>
<path d="M122.46 13.7963C122.46 14.7026 122.2 15.4451 121.678 16.0276C121.132 16.6263 120.409 16.9251 119.504 16.9251C118.634 16.9251 117.94 16.6388 117.421 16.0638C116.905 15.4901 116.646 14.7663 116.646 13.8938C116.646 12.9813 116.912 12.2326 117.446 11.6513C117.98 11.0701 118.698 10.7788 119.603 10.7788C120.473 10.7788 121.175 11.0651 121.704 11.6388C122.207 12.1963 122.46 12.9163 122.46 13.7963ZM121.093 13.8388C121.093 13.2951 120.974 12.8288 120.739 12.4401C120.461 11.9701 120.068 11.7351 119.554 11.7351C119.025 11.7351 118.622 11.9701 118.344 12.4401C118.107 12.8288 117.99 13.3026 117.99 13.8626C117.99 14.4063 118.108 14.8726 118.344 15.2613C118.63 15.7313 119.028 15.9663 119.541 15.9663C120.045 15.9663 120.442 15.7276 120.726 15.2488C120.969 14.8526 121.093 14.3826 121.093 13.8388Z" fill="white"/>
<path d="M129.556 16.7914H128.238V13.4164C128.238 12.3764 127.84 11.8564 127.04 11.8564C126.649 11.8564 126.333 11.9989 126.088 12.2851C125.844 12.5714 125.722 12.9089 125.722 13.2951V16.7901H124.401V12.5826C124.401 12.0651 124.386 11.5039 124.354 10.8964H125.513L125.575 11.8176H125.611C125.766 11.5314 125.995 11.2951 126.295 11.1064C126.654 10.8864 127.053 10.7751 127.492 10.7751C128.045 10.7751 128.506 10.9526 128.873 11.3089C129.33 11.7451 129.556 12.3964 129.556 13.2614V16.7914Z" fill="white"/>
<path d="M138.438 11.8801H136.985V14.7426C136.985 15.4701 137.243 15.8339 137.754 15.8339C137.991 15.8339 138.187 15.8139 138.342 15.7726L138.376 16.7664C138.116 16.8639 137.773 16.9126 137.351 16.9126C136.83 16.9126 136.424 16.7551 136.131 16.4401C135.836 16.1251 135.69 15.5951 135.69 14.8514V11.8801H134.823V10.8989H135.69V9.8189L136.983 9.4314V10.8976H138.437V11.8801H138.438Z" fill="white"/>
<path d="M145.424 16.7913H144.103V13.4413C144.103 12.3851 143.705 11.8563 142.908 11.8563C142.296 11.8563 141.878 12.1626 141.649 12.7751C141.61 12.9038 141.587 13.0613 141.587 13.2463V16.7901H140.269V8.19507H141.587V11.7463H141.612C142.028 11.1001 142.624 10.7776 143.396 10.7776C143.942 10.7776 144.394 10.9551 144.753 11.3113C145.2 11.7551 145.424 12.4151 145.424 13.2876V16.7913Z" fill="white"/>
<path d="M152.631 13.5663C152.631 13.8013 152.613 13.9988 152.582 14.1601H148.624C148.642 14.7426 148.831 15.1863 149.197 15.4938C149.532 15.7688 149.964 15.9063 150.493 15.9063C151.078 15.9063 151.612 15.8138 152.093 15.6276L152.3 16.5376C151.737 16.7801 151.075 16.9013 150.308 16.9013C149.388 16.9013 148.664 16.6326 148.14 16.0951C147.614 15.5576 147.353 14.8363 147.353 13.9313C147.353 13.0426 147.596 12.3026 148.086 11.7126C148.598 11.0826 149.289 10.7676 150.162 10.7676C151.015 10.7676 151.664 11.0826 152.102 11.7126C152.456 12.2126 152.631 12.8313 152.631 13.5663ZM151.372 13.2276C151.382 12.8388 151.295 12.5038 151.116 12.2213C150.887 11.8576 150.538 11.6751 150.066 11.6751C149.635 11.6751 149.284 11.8526 149.016 12.2088C148.797 12.4926 148.667 12.8313 148.624 13.2276H151.372Z" fill="white"/>
</svg>
