<svg width="170" height="50" viewBox="0 0 170 50" fill="none" xmlns="http://www.w3.org/2000/svg">
<path fill-rule="evenodd" clip-rule="evenodd" d="M163.701 50H6.29861C2.82718 50 0 47.182 0 43.75V6.25C0 2.80549 2.82718 0 6.29861 0H163.701C167.17 0 170 2.80549 170 6.25V43.75C170 47.182 167.17 50 163.701 50Z" fill="black"/>
<path fill-rule="evenodd" clip-rule="evenodd" d="M163.701 1.00062C166.613 1.00062 168.996 3.36035 168.996 6.25V43.75C168.996 46.6397 166.629 48.9994 163.701 48.9994H6.29861C3.38699 48.9994 1.0039 46.6397 1.0039 43.75V6.25C1.0039 3.36035 3.37135 1.00062 6.29861 1.00062H163.701ZM163.701 0H6.29861C2.82718 0 0 2.81796 0 6.25V43.75C0 47.1945 2.82718 50 6.29861 50H163.701C167.17 50 170 47.1945 170 43.75V6.25C170 2.81796 167.17 0 163.701 0Z" fill="#A6A6A6"/>
<path d="M89.5565 16.5399C88.4213 16.5399 87.4643 16.1441 86.7075 15.3648C85.9569 14.6073 85.5378 13.563 85.5566 12.4969C85.5566 11.3592 85.9444 10.3959 86.7075 9.63222C87.4612 8.85292 88.4181 8.45703 89.5534 8.45703C90.6761 8.45703 91.6331 8.85292 92.4025 9.63222C93.1655 10.4209 93.5533 11.3841 93.5533 12.4969C93.5408 13.6378 93.153 14.601 92.4025 15.3616C91.6488 16.1472 90.6918 16.5399 89.5565 16.5399ZM55.7774 16.5399C54.6672 16.5399 53.704 16.1503 52.9158 15.3803C52.134 14.6135 51.7368 13.6441 51.7368 12.5C51.7368 11.356 52.134 10.3866 52.9158 9.61975C53.6883 8.8498 54.6516 8.46015 55.7774 8.46015C56.3278 8.46015 56.8626 8.56925 57.3755 8.79057C57.879 9.00566 58.2887 9.29868 58.5921 9.65716L58.6671 9.74756L57.8196 10.5767L57.732 10.4739C57.2536 9.90653 56.6124 9.6291 55.7649 9.6291C55.0081 9.6291 54.3482 9.89718 53.804 10.4271C53.2567 10.9601 52.9784 11.6584 52.9784 12.5032C52.9784 13.3479 53.2567 14.0462 53.804 14.5792C54.3482 15.1092 55.0081 15.3772 55.7649 15.3772C56.5718 15.3772 57.2504 15.1092 57.779 14.5792C58.0917 14.2675 58.2856 13.8311 58.3544 13.2794H55.6367V12.1135H59.5209L59.5366 12.2195C59.5647 12.4159 59.5929 12.6185 59.5929 12.8055C59.5929 13.881 59.2676 14.7507 58.6234 15.3928C57.8915 16.1534 56.9346 16.5399 55.7774 16.5399ZM100.69 16.3747H99.4923L95.8238 10.5237L95.8551 11.5774V16.3716H94.6573V8.62536H96.024L96.0615 8.68459L99.511 14.1958L99.4798 13.1453V8.62536H100.69V16.3747ZM80.5558 16.3747H79.3424V9.7912H77.2377V8.62536H82.6575V9.7912H80.5527V16.3747H80.5558ZM76.2494 16.3747H75.0391V8.62536H76.2494V16.3747ZM69.4473 16.3747H68.237V9.7912H66.1323V8.62536H71.552V9.7912H69.4473V16.3747ZM65.366 16.3623H60.725V8.62536H65.366V9.7912H61.9384V11.9171H65.0314V13.0705H61.9384V15.1964H65.366V16.3623ZM87.5956 14.5636C88.1367 15.1029 88.7934 15.3741 89.5565 15.3741C90.3415 15.3741 90.9826 15.1092 91.5174 14.5636C92.0491 14.0337 92.318 13.3386 92.318 12.5C92.318 11.6615 92.0491 10.9633 91.5205 10.4365C90.9795 9.89718 90.3196 9.62598 89.5596 9.62598C88.7747 9.62598 88.1335 9.89095 87.6019 10.4365C87.0702 10.9664 86.8013 11.6615 86.8013 12.5C86.8013 13.3386 87.0671 14.0368 87.5956 14.5636Z" fill="white"/>
<path fill-rule="evenodd" clip-rule="evenodd" d="M85.4441 27.1945C82.4887 27.1945 80.0931 29.4296 80.0931 32.5125C80.0931 35.5673 82.5043 37.8304 85.4441 37.8304C88.3995 37.8304 90.7951 35.5798 90.7951 32.5125C90.7951 29.4296 88.3995 27.1945 85.4441 27.1945ZM85.4441 35.7232C83.8272 35.7232 82.4355 34.389 82.4355 32.5C82.4355 30.5829 83.8303 29.2768 85.4441 29.2768C87.0609 29.2768 88.4526 30.5829 88.4526 32.5C88.4558 34.4015 87.0609 35.7232 85.4441 35.7232ZM73.7694 27.1945C70.814 27.1945 68.4184 29.4296 68.4184 32.5125C68.4184 35.5673 70.8296 37.8304 73.7694 37.8304C76.7248 37.8304 79.1204 35.5798 79.1204 32.5125C79.1204 29.4296 76.7217 27.1945 73.7694 27.1945ZM73.7694 35.7232C72.1525 35.7232 70.7608 34.389 70.7608 32.5C70.7608 30.5829 72.1557 29.2768 73.7694 29.2768C75.3863 29.2768 76.778 30.5829 76.778 32.5C76.778 34.4015 75.3863 35.7232 73.7694 35.7232ZM59.8774 28.8186V31.0692H65.2972C65.1315 32.3317 64.7124 33.2637 64.0713 33.9027C63.2769 34.6945 62.051 35.5549 59.8899 35.5549C56.5592 35.5549 53.9541 32.8741 53.9541 29.5542C53.9541 26.2344 56.5592 23.5536 59.8899 23.5536C61.6882 23.5536 62.9986 24.2612 63.9712 25.1652L65.5725 23.5692C64.2214 22.2787 62.4232 21.2905 59.9025 21.2905C55.3333 21.2905 51.4991 25 51.4991 29.5418C51.4991 34.096 55.3302 37.793 59.9025 37.793C62.37 37.793 64.2214 36.9888 65.685 35.4738C67.1768 33.9869 67.6491 31.889 67.6491 30.1964C67.6491 29.6696 67.6084 29.1958 67.524 28.7936H59.8743C59.8774 28.7905 59.8774 28.8186 59.8774 28.8186ZM116.699 30.5705C116.252 29.3766 114.901 27.182 112.13 27.182C109.384 27.182 107.101 29.336 107.101 32.5C107.101 35.4863 109.359 37.818 112.396 37.818C114.836 37.818 116.255 36.331 116.84 35.4582L115.029 34.2488C114.429 35.1372 113.594 35.7201 112.409 35.7201C111.211 35.7201 110.373 35.1777 109.816 34.1085L116.95 31.1627C116.95 31.1658 116.699 30.5705 116.699 30.5705ZM109.425 32.3473C109.369 30.293 111.026 29.2488 112.212 29.2488C113.147 29.2488 113.925 29.707 114.191 30.3741L109.425 32.3473ZM103.63 37.5H105.972V21.8766H103.63V37.5ZM99.7833 28.3759H99.6988C99.1703 27.7494 98.1664 27.182 96.8841 27.182C94.2227 27.182 91.7708 29.5168 91.7708 32.5156C91.7708 35.5019 94.2102 37.8086 96.8841 37.8086C98.1507 37.8086 99.1703 37.2382 99.6988 36.5991H99.7833V37.3628C99.7833 39.3921 98.6949 40.4863 96.9404 40.4863C95.505 40.4863 94.6136 39.4576 94.2509 38.5973L92.2149 39.4451C92.7997 40.8479 94.3603 42.5842 96.9373 42.5842C99.6832 42.5842 102.01 40.9726 102.01 37.0418V27.5H99.7958V28.3759C99.7989 28.3759 99.7833 28.3759 99.7833 28.3759ZM97.0937 35.7232C95.4768 35.7232 94.1258 34.3766 94.1258 32.5156C94.1258 30.639 95.4768 29.2799 97.0937 29.2799C98.6949 29.2799 99.9365 30.6546 99.9365 32.5156C99.9521 34.3766 98.698 35.7232 97.0937 35.7232ZM127.667 21.8766H122.066V37.5H124.409V31.5835H127.67C130.263 31.5835 132.812 29.7101 132.812 26.7363C132.812 23.7625 130.272 21.8766 127.667 21.8766ZM127.736 29.4015H124.405V24.0399H127.736C129.491 24.0399 130.482 25.4832 130.482 26.7207C130.482 27.9458 129.478 29.4015 127.736 29.4015ZM142.2 27.1665C140.499 27.1665 138.745 27.9177 138.019 29.5542L140.096 30.4146C140.543 29.5542 141.362 29.2612 142.229 29.2612C143.442 29.2612 144.668 29.9844 144.696 31.2749V31.4401C144.277 31.2032 143.358 30.8416 142.257 30.8416C140.014 30.8416 137.741 32.0636 137.741 34.3547C137.741 36.4526 139.58 37.7992 141.628 37.7992C143.201 37.7992 144.067 37.0916 144.609 36.2718H144.693V37.4813H146.951V31.4963C146.951 28.7095 144.874 27.1665 142.2 27.1665ZM141.906 35.7232C141.14 35.7232 140.068 35.3491 140.068 34.389C140.068 33.1796 141.406 32.7213 142.548 32.7213C143.58 32.7213 144.067 32.9426 144.68 33.2481C144.512 34.6509 143.323 35.7107 141.906 35.7232ZM155.189 27.5L152.499 34.2768H152.415L149.628 27.5H147.107L151.289 36.9732L148.906 42.2382H151.345L157.778 27.5H155.189ZM134.104 37.5H136.446V21.8766H134.104V37.5Z" fill="white"/>
<path fill-rule="evenodd" clip-rule="evenodd" d="M13.0851 9.41717C12.7223 9.80682 12.5128 10.4022 12.5128 11.1815V38.8218C12.5128 39.6011 12.7223 40.1965 13.0976 40.5705L13.1945 40.6547L28.7315 25.1684V24.8224L13.182 9.33301L13.0851 9.41717Z" fill="url(#paint0_linear)"/>
<path fill-rule="evenodd" clip-rule="evenodd" d="M33.9011 30.3461L28.719 25.1809V24.8193L33.9011 19.6541L34.0137 19.7226L40.1435 23.1952C41.898 24.1802 41.898 25.8074 40.1435 26.8049L34.0137 30.2775L33.9011 30.3461Z" fill="url(#paint1_linear)"/>
<path fill-rule="evenodd" clip-rule="evenodd" d="M34.0138 30.2774L28.7191 25L13.0851 40.5829C13.6575 41.1939 14.6176 41.2625 15.6903 40.6671L34.0138 30.2774Z" fill="url(#paint2_linear)"/>
<path fill-rule="evenodd" clip-rule="evenodd" d="M34.0138 19.7226L15.6903 9.34849C14.6176 8.73752 13.6543 8.82168 13.0851 9.43265L28.7191 25L34.0138 19.7226Z" fill="url(#paint3_linear)"/>
<path opacity="0.2" fill-rule="evenodd" clip-rule="evenodd" d="M33.9012 30.1653L15.7027 40.4708C14.6863 41.0537 13.7793 41.0131 13.1945 40.4832L13.0975 40.5799L13.1945 40.664C13.7793 41.1908 14.6863 41.2345 15.7027 40.6516L34.0263 30.2775L33.9012 30.1653Z" fill="black"/>
<path opacity="0.12" fill-rule="evenodd" clip-rule="evenodd" d="M40.1435 26.6241L33.8855 30.1652L33.9981 30.2774L40.1278 26.8049C41.0066 26.3061 41.4382 25.6515 41.4382 25C41.385 25.5985 40.9378 26.1658 40.1435 26.6241Z" fill="black"/>
<path opacity="0.25" fill-rule="evenodd" clip-rule="evenodd" d="M15.6902 9.52936L40.1435 23.376C40.9378 23.8218 41.385 24.4047 41.4539 25.0001C41.4539 24.3486 41.0223 23.694 40.1435 23.1952L15.6902 9.34856C13.9357 8.34794 12.5128 9.18335 12.5128 11.1815V11.3623C12.5128 9.36103 13.9357 8.54121 15.6902 9.52936Z" fill="white"/>
<defs>
<linearGradient id="paint0_linear" x1="27.3379" y1="10.8833" x2="2.46112" y2="17.5335" gradientUnits="userSpaceOnUse">
<stop stop-color="#00A0FF"/>
<stop offset="0.00657" stop-color="#00A1FF"/>
<stop offset="0.2601" stop-color="#00BEFF"/>
<stop offset="0.5122" stop-color="#00D2FF"/>
<stop offset="0.7604" stop-color="#00DFFF"/>
<stop offset="1" stop-color="#00E3FF"/>
</linearGradient>
<linearGradient id="paint1_linear" x1="42.4315" y1="25.0001" x2="12.0863" y2="25.0001" gradientUnits="userSpaceOnUse">
<stop stop-color="#FFE000"/>
<stop offset="0.4087" stop-color="#FFBD00"/>
<stop offset="0.7754" stop-color="#FFA500"/>
<stop offset="1" stop-color="#FF9C00"/>
</linearGradient>
<linearGradient id="paint2_linear" x1="31.1347" y1="27.8717" x2="11.2515" y2="61.4464" gradientUnits="userSpaceOnUse">
<stop stop-color="#FF3A44"/>
<stop offset="1" stop-color="#C31162"/>
</linearGradient>
<linearGradient id="paint3_linear" x1="9.14835" y1="0.223475" x2="18.019" y2="15.2184" gradientUnits="userSpaceOnUse">
<stop stop-color="#32A071"/>
<stop offset="0.0685" stop-color="#2DA771"/>
<stop offset="0.4762" stop-color="#15CF74"/>
<stop offset="0.8009" stop-color="#06E775"/>
<stop offset="1" stop-color="#00F076"/>
</linearGradient>
</defs>
</svg>
