<svg width="140" height="140" viewBox="0 0 140 140" fill="none" xmlns="http://www.w3.org/2000/svg">
<g filter="url(#filter0_d)">
<rect x="16" y="16" width="100" height="100" rx="10" fill="#008080"/>
<path d="M35.3343 58.1233C35.4022 58.5061 35.4385 58.8066 35.4385 59.0329V59.6545C36.3213 58.3497 37.1363 57.6952 37.9105 57.6952C38.3995 57.7899 38.6486 57.9834 38.6486 58.2674C38.6486 58.6131 38.3724 59.07 37.8064 59.6545C37.4533 59.9879 37.2812 60.313 37.2812 60.6094C36.8601 61.375 36.5975 61.9348 36.4934 62.2846C37.9015 63.8858 38.5987 64.8324 38.5987 65.1082C38.7436 65.3223 38.8614 65.7421 38.9655 66.3513C38.9655 66.3883 38.9519 66.4007 38.9112 66.4007C38.9112 66.6394 39.1104 67.2486 39.4907 68.2199C39.4907 68.8785 39.6627 69.7882 40.0159 70.9448C40.2921 71.698 40.5411 72.727 40.7539 74.0524C40.7132 74.4228 40.5321 74.8056 40.2287 75.2008C39.9661 75.3325 39.5858 75.4271 39.0696 75.4889C37.9105 75.3819 37.3355 75.069 37.3355 74.534C36.8601 73.5667 36.2851 71.7721 35.6014 69.1749H35.4973C35.4294 69.4959 35.3932 69.7017 35.3932 69.7964C35.4973 70.4179 35.5652 70.9571 35.6014 71.4222C35.5335 72.4842 35.3796 73.0728 35.126 73.1921C34.5465 73.2868 34.1662 73.4185 33.967 73.5749C33.8991 73.612 33.8357 73.6243 33.7587 73.6243H33.4961C32.4457 73.4103 31.9159 73.2292 31.9159 73.0975C31.4541 72.6529 31.2323 71.9861 31.2323 71.0888C31.1915 71.0888 31.1779 71.0518 31.1779 70.9942C31.1779 70.9571 31.1915 70.9448 31.2323 70.9448C31.1915 70.2862 31.1417 69.7388 31.0738 69.3189L31.1281 69.0308C31.1281 68.9938 31.1146 68.9485 31.0738 68.8867L31.1281 68.648C31.0874 68.1582 31.0738 67.7137 31.0738 67.3103C31.0738 67.2733 31.0602 67.2609 31.0195 67.2609L31.0738 67.1662V65.4457L31.1281 65.1576C31.101 65.0876 31.0602 64.6555 31.024 63.8652C31.1281 62.9185 31.273 61.0416 31.4451 58.2221C31.522 57.65 31.839 57.3618 32.3913 57.3618C33.2335 57.3001 33.6546 57.2548 33.6546 57.2178C34.4016 57.2178 34.963 57.5141 35.3343 58.1233Z" fill="white"/>
<path d="M46.5991 56.5098C46.7168 56.5098 46.821 56.9749 46.9161 57.8969C47.5861 60.6341 48.1249 62.6921 48.546 64.0669C48.5868 64.1286 48.6366 64.3426 48.7045 64.7378H48.7588C48.7588 64.5484 48.9173 63.8281 49.2342 62.5851V62.5357C49.2342 62.0582 49.2478 61.2927 49.2885 60.2389C49.1844 59.7368 49.1301 59.317 49.1301 58.9959V58.3744C49.1301 58.0739 49.1437 57.7035 49.1844 57.2754L49.1301 56.9873C49.1301 56.4151 49.6689 56.127 50.76 56.127H51.0226C51.3124 56.127 51.5116 56.3287 51.6022 56.7485C51.8784 58.9589 52.3402 61.3174 52.9695 63.8281C52.9695 63.9598 53.0374 64.6061 53.1778 65.7874V66.2648C53.1778 66.697 53.137 67.0428 53.0737 67.3185C53.1144 67.4873 53.128 67.6437 53.128 67.796C52.8925 70.1504 52.6797 71.3358 52.4986 71.3358C52.2994 72.089 52.064 72.6406 51.7606 73.011C51.6157 73.6572 51.3939 74.1223 51.077 74.3981C50.1805 75.139 49.6055 75.5342 49.3429 75.5959C48.7905 75.7852 48.46 75.884 48.3423 75.884L47.9755 75.8346L47.2375 75.884C46.9613 75.884 46.6082 75.7276 46.1871 75.4066C45.4898 75.4066 45.0144 74.4599 44.7654 72.583C44.6975 72.3936 44.6613 71.9738 44.6613 71.3399V71.1958C44.6613 71.1135 44.702 70.6813 44.7654 69.9034V69.3766C44.7654 68.8744 45.1457 68.5739 45.9245 68.4669C46.4225 68.3352 46.9115 68.2776 47.396 68.2776H47.6043C47.7899 68.2776 47.9076 68.6974 47.971 69.5206C48.0253 69.6894 48.1295 70.3685 48.2879 71.5786C48.4328 71.9738 48.4962 72.2619 48.4962 72.4389C49.6553 70.739 50.2303 69.1255 50.2303 67.6067C50.2031 66.8781 50.1533 66.5077 50.0718 66.5077C49.4017 66.9275 48.5053 67.1292 47.3869 67.1292H47.2285C45.9381 67.1292 45.0326 66.376 44.4938 64.8818C44.1406 64.2356 43.8735 62.9926 43.706 61.1527C43.6652 59.5392 43.6154 57.934 43.5475 56.3699C43.5475 56.1311 43.9821 55.95 44.865 55.843C46.0196 55.9706 46.5991 56.1888 46.5991 56.5098Z" fill="white"/>
<path d="M64.9949 56.4851C65.5609 56.4851 65.8371 56.6662 65.8371 57.0119C65.8914 57.0119 65.9412 57.3577 65.9955 58.0656C66.2038 58.4855 66.3487 58.8189 66.4166 59.0699L66.3125 61.3173C66.4166 61.7701 66.4709 62.3463 66.4709 63.0378V63.0872C66.4709 63.4947 66.4166 63.8157 66.3125 64.0421C66.3804 64.3508 66.4166 64.783 66.4166 65.3346V65.384C66.4166 65.9478 66.3623 66.3512 66.2581 66.627C66.2989 66.9028 66.3125 67.0798 66.3125 67.1538C66.3125 68.5286 66.2446 69.4506 66.1042 69.9281C66.1449 70.5619 66.1585 70.9694 66.1585 71.1711C66.1585 71.2781 66.1042 71.6156 66.0001 72.1754L66.0544 72.8463C66.0544 73.7313 65.0945 74.3528 63.1612 74.7109C62.6089 74.7109 62.1244 74.3775 61.6898 73.7066C61.5449 73.1921 61.2008 72.1631 60.6393 70.6442L59.8515 68.1088H59.7836C59.7429 68.4298 59.7293 68.6727 59.7293 68.825V69.0143C59.7972 70.6895 59.8334 71.6074 59.8334 71.7885C59.7564 73.1262 59.6614 73.8589 59.5708 73.9906C59.0954 74.2787 58.6653 74.4228 58.2533 74.4228C57.0308 74.4228 56.4105 73.8136 56.4105 72.6035C56.5147 71.2287 56.569 70.4384 56.569 70.2615C56.4241 69.3189 56.3607 68.685 56.3607 68.3475C56.3607 68.2405 56.4015 68.0264 56.4649 67.6766L56.4105 67.3885C56.4513 67.0674 56.4649 66.804 56.4649 66.6229C56.4649 66.3224 56.4241 65.919 56.3607 65.3798C56.5328 63.6223 56.6777 61.84 56.7818 60.0208C56.741 59.3745 56.7275 58.9341 56.7275 58.683C56.7275 57.8804 56.8995 57.4853 57.2527 57.4853C57.4609 57.3906 57.7281 57.3412 58.0405 57.3412C59.4486 57.3412 60.1458 57.4853 60.1458 57.7734C60.2002 57.9751 60.422 58.2756 60.8295 58.683C60.988 58.9465 61.1464 59.3169 61.3049 59.782C61.6581 60.1401 61.8301 60.6546 61.8301 61.3132C62.2512 61.6836 62.4595 62.2558 62.4595 63.0337C62.7356 63.3794 62.9711 64.1944 63.1431 65.4745C63.2473 65.4992 63.3016 65.6762 63.3016 66.0014H63.3559C63.3559 65.775 63.4465 64.8653 63.6185 63.2765C63.6185 62.4533 63.6321 61.9718 63.6729 61.84C63.6321 61.6836 63.6185 61.4696 63.6185 61.2185V60.9304C63.6185 60.7616 63.6321 60.6176 63.6729 60.4982C63.6321 60.3295 63.6185 60.1772 63.6185 60.0208V59.3992C63.7227 58.6954 63.777 58.2262 63.777 58.0121V57.0078C63.777 56.732 64.0939 56.555 64.7233 56.481H64.9949V56.4851ZM63.2563 66.1948V66.3389H63.3106V66.1948H63.2563Z" fill="white"/>
<path d="M72.6829 56.2834C74.3672 56.2834 75.5625 56.8226 76.2597 57.9093C76.9706 58.7119 77.6542 59.8809 78.3107 61.3997C78.6911 62.511 78.8903 63.2889 78.8903 63.7417C78.8903 63.9228 78.8767 64.1369 78.8359 64.4126C78.9401 65.0465 78.9944 65.4787 78.9944 65.7051C78.9944 66.0508 78.9401 66.553 78.8359 67.2362C78.8767 67.512 78.8903 67.7137 78.8903 67.8578C78.682 68.5163 78.5326 69.1625 78.4692 69.817C78.0481 70.6896 77.7719 71.3729 77.6271 71.875C77.1788 72.1961 76.8755 72.5789 76.7306 73.0234L75.9926 73.4556C75.0056 75.0238 74.0593 75.7976 73.1492 75.7976C72.7146 75.7976 72.375 75.6165 72.1486 75.2707C71.4514 75.2707 70.9759 75.0814 70.7269 74.6986C70.41 73.7766 70.2425 72.7476 70.2017 71.591C70.1338 71.2576 70.0976 70.669 70.0976 69.8211V69.2449C69.9934 68.3023 69.9391 67.512 69.9391 66.9028C69.9391 66.8781 69.9799 66.7711 70.0433 66.5694C69.9753 66.2813 69.9255 65.7915 69.8848 65.0877C69.9255 64.2727 69.9527 63.8076 69.9889 63.7006L69.8848 63.079L69.9889 61.4532C69.9482 60.3913 69.9346 59.3828 69.9346 58.4403V57.8187C69.7897 57.4236 69.7263 57.1849 69.7263 57.1025C69.7263 56.6251 70.6726 56.3493 72.5697 56.2876H72.6829V56.2834ZM73.1537 58.0533L73.9959 61.305V62.2599C74.349 62.4863 74.5211 62.9638 74.5211 63.6964C74.5211 63.7458 74.4803 63.8775 74.417 64.0792C74.5211 64.0792 74.589 64.3056 74.6252 64.7501V64.8448C74.6252 65.0588 74.6117 65.2523 74.5709 65.4169L74.6252 65.7503C74.5845 66.1455 74.5709 66.3595 74.5709 66.3719C74.6343 66.767 74.675 67.1004 74.675 67.3762V70.3891C74.675 70.5208 74.6343 70.6525 74.5709 70.7719V70.8213H74.6252C75.2184 69.854 75.5217 69.0391 75.5217 68.3805C75.73 67.6972 75.8386 66.8246 75.8386 65.7503V65.4169C75.8386 62.6551 75.2591 60.4406 74.1046 58.7695L73.1537 58.0533ZM74.3626 71.3029V71.3975H74.417V71.3029H74.3626ZM74.5211 70.8707V70.9654H74.5754V70.8707H74.5211Z" fill="white"/>
<path d="M85.9307 57.5758C86.0756 57.5182 86.2974 57.4811 86.5872 57.4811C87.4927 57.5634 88.3349 57.6252 89.1408 57.6622C89.6524 57.9133 89.906 58.2261 89.906 58.6089C89.4442 59.4568 88.525 59.8767 87.1577 59.8767H86.5374L86.2884 59.926V59.8767L86.1843 59.926C86.1163 59.889 86.053 59.8767 85.985 59.8767C85.8809 60.1154 85.8266 60.3418 85.8266 60.5476V60.6422C85.8266 60.881 85.8402 61.1938 85.8809 61.5848L85.6319 62.2187C85.6862 62.6632 85.7496 62.8896 85.8311 62.8896C85.9081 62.8896 86.1616 62.8772 86.5963 62.8402C87.9229 63.116 88.5839 63.3177 88.5839 63.4247C88.7922 63.5934 88.9008 63.7704 88.9008 63.9762C88.679 64.4537 88.2579 64.6924 87.624 64.6924C87.5199 64.6924 87.0038 64.8488 86.0846 65.1452H85.8854L85.9398 65.2275C85.9398 65.3098 85.9262 65.3592 85.8854 65.3592C85.9262 65.7173 85.9398 65.9684 85.9398 66.1248V66.8081C85.9398 67.0098 85.899 67.479 85.8356 68.2075C85.8764 68.4462 85.9398 68.6603 86.0439 68.8414L85.9896 69.3806V69.821C85.9896 70.9447 86.0575 71.7226 86.1888 72.163C86.148 72.4759 86.1344 72.7146 86.1344 72.8916V72.9739C86.1344 73.155 86.2522 73.2497 86.4876 73.2497C87.1079 73.2497 87.7372 73.2126 88.3802 73.155C89.1951 73.155 89.6026 73.3361 89.6026 73.6942C89.2449 74.5915 88.0904 75.0113 86.1299 74.9743C84.5769 75.0813 83.4858 74.9496 82.8429 74.5668C82.4625 72.978 82.2633 71.4098 82.2633 69.8663C82.2633 69.3888 82.3041 68.8043 82.3675 68.1087C82.2995 67.8947 82.2226 67.4049 82.1592 66.627L82.2633 65.5856C82.2226 65.5156 82.1954 65.0011 82.1592 64.0544L82.4082 61.1238C82.3448 60.9345 82.3176 60.8028 82.3176 60.7163V60.5352C82.3176 60.3912 82.3312 60.2471 82.372 60.0948C82.3312 59.8931 82.3041 59.7491 82.2678 59.6873C82.3086 59.4362 82.3222 59.2222 82.3222 59.0534V58.1109C82.3222 57.8598 82.6889 57.5964 83.4405 57.3453C83.8208 57.3453 84.0065 57.3329 84.0065 57.2959C84.998 57.3823 85.6409 57.477 85.9307 57.5758Z" fill="white"/>
<path d="M99.5635 56.5715C100.184 57.1231 100.627 58.2715 100.931 60.0167C100.972 60.5806 100.985 60.914 100.985 61.021C100.709 63.5071 100.46 64.7501 100.247 64.7501C100.247 64.8695 99.9846 65.2523 99.4594 65.8985C98.8662 66.343 98.4723 66.6641 98.3003 66.8534L98.2459 66.9481C99.1515 67.8906 99.7174 68.7427 99.9302 69.4836C99.9302 69.6852 100.193 70.2368 100.718 71.1094C100.718 71.2288 101.049 72.1754 101.719 73.933C101.787 74.1841 101.823 74.4598 101.823 74.748V74.892C101.823 75.3366 101.651 75.5959 101.298 75.707C100.809 75.8387 100.428 75.9087 100.139 75.9457C99.3643 75.9457 98.821 75.5135 98.5085 74.6533C98.3003 74.1141 97.9426 73.4679 97.4581 72.6941C97.2589 71.9161 97.0371 71.3317 96.7745 70.9242C96.6703 70.6978 96.616 70.5414 96.616 70.4467H96.5617C96.5617 70.5784 96.5209 70.9118 96.4575 71.451C96.4711 71.8338 96.5119 72.0231 96.5617 72.0231C96.4937 72.1549 96.4575 72.4183 96.4575 72.7887V73.6984C96.4575 73.8054 96.4439 73.9495 96.4032 74.1306C96.5481 74.4763 96.6115 74.7891 96.6115 75.0855C96.6115 75.4436 96.1768 75.67 95.2939 75.7564C94.5061 75.7564 94.0443 75.6123 93.9266 75.3242C93.4376 73.8301 93.1886 71.7968 93.1886 69.2037L92.926 66.4295L93.0301 65.5692C92.9622 65.1494 92.926 64.7336 92.926 64.3262V63.894C92.926 63.4865 92.9396 63.0461 92.9803 62.5563C92.9396 62.4245 92.926 62.3052 92.926 62.1735L93.0301 61.6013C92.9622 61.1486 92.926 60.6588 92.926 60.1196C93.1116 58.7325 93.3606 57.8105 93.664 57.3454C93.7681 57.3454 93.913 57.1066 94.085 56.6292C94.8593 55.9953 95.6516 55.6742 96.453 55.6742C96.4666 55.6742 96.702 55.6619 97.1367 55.6249C98.3682 55.6125 99.1832 55.9377 99.5635 56.5715ZM95.9867 59.247C95.9867 59.8808 96.0772 60.7164 96.2493 61.7824V62.0212C96.2493 62.1282 96.2357 62.2723 96.1949 62.4534C96.3398 62.8732 96.4032 63.4453 96.4032 64.1739L96.4575 64.3632C97.2589 63.7293 97.6664 62.4492 97.6664 60.5353C97.6664 58.8971 97.2997 57.7858 96.5617 57.1889H96.5073C96.204 57.1889 96.0319 57.7981 95.9821 59.0082V59.247H95.9867ZM96.5119 70.2985V70.3932H96.5662V70.2985H96.5119Z" fill="white"/>
</g>
<defs>
<filter id="filter0_d" x="0" y="0" width="140" height="140" filterUnits="userSpaceOnUse" color-interpolation-filters="sRGB">
<feFlood flood-opacity="0" result="BackgroundImageFix"/>
<feColorMatrix in="SourceAlpha" type="matrix" values="0 0 0 0 0 0 0 0 0 0 0 0 0 0 0 0 0 0 127 0"/>
<feOffset dx="4" dy="4"/>
<feGaussianBlur stdDeviation="10"/>
<feColorMatrix type="matrix" values="0 0 0 0 0.0139954 0 0 0 0 0.146129 0 0 0 0 0.146129 0 0 0 0.2 0"/>
<feBlend mode="normal" in2="BackgroundImageFix" result="effect1_dropShadow"/>
<feBlend mode="normal" in="SourceGraphic" in2="effect1_dropShadow" result="shape"/>
</filter>
</defs>
</svg>
