<svg width="180" height="58" viewBox="0 0 180 58" fill="none" xmlns="http://www.w3.org/2000/svg">
<path d="M11.3878 7.9479C11.5597 9.01982 11.6513 9.86123 11.6513 10.4952V12.2356C13.8858 8.58183 15.9485 6.74919 17.908 6.74919C19.1455 7.01429 19.7758 7.55601 19.7758 8.35131C19.7758 9.3195 19.0768 10.5989 17.6444 12.2356C16.7506 13.1692 16.3152 14.0798 16.3152 14.9096C15.2495 17.0535 14.5848 18.621 14.3213 19.6007C17.885 24.0844 19.6497 26.7354 19.6497 27.5076C20.0164 28.107 20.3144 29.2826 20.5779 30.9885C20.5779 31.0922 20.5436 31.1268 20.4404 31.1268C20.4404 31.7953 20.9446 33.5012 21.9072 36.2213C21.9072 38.0655 22.3426 40.6127 23.2364 43.8515C23.9354 45.9608 24.5657 48.8423 25.1043 52.5537C25.0011 53.5911 24.5428 54.663 23.775 55.7695C23.1104 56.1383 22.1478 56.4034 20.8415 56.5763C17.908 56.2766 16.4527 55.4006 16.4527 53.9023C15.2495 51.1936 13.7942 46.1683 12.0638 38.8953H11.8003C11.6284 39.7944 11.5367 40.3707 11.5367 40.6358C11.8003 42.3762 11.9722 43.8861 12.0638 45.1886C11.892 48.1623 11.5024 49.8105 10.8606 50.1448C9.39389 50.4099 8.43133 50.7787 7.92713 51.2167C7.75524 51.3204 7.59482 51.355 7.40001 51.355H6.73539C4.07689 50.7556 2.73618 50.2485 2.73618 49.8797C1.56736 48.6349 1.00586 46.7676 1.00586 44.255C0.902731 44.255 0.868352 44.1512 0.868352 43.9899C0.868352 43.8861 0.902731 43.8515 1.00586 43.8515C0.902731 42.0074 0.776681 40.4744 0.604795 39.2988L0.742302 38.4919C0.742302 38.3882 0.707926 38.2614 0.604795 38.0885L0.742302 37.42C0.639171 36.0484 0.604795 34.8036 0.604795 33.674C0.604795 33.5703 0.570417 33.5357 0.467285 33.5357L0.604795 33.2706V28.4527L0.742302 27.6459C0.673548 27.45 0.570417 26.2397 0.478744 24.0267C0.742303 21.3758 1.10899 16.1199 1.54444 8.22453C1.73924 6.62241 2.54137 5.81558 3.93938 5.81558C6.07076 5.64269 7.13646 5.5159 7.13646 5.41217C9.0272 5.41217 10.4481 6.24204 11.3878 7.9479Z" fill="#008080"/>
<path d="M39.8978 3.42972C40.1958 3.42972 40.4593 4.73216 40.7 7.314C42.3959 14.9788 43.7595 20.7418 44.8252 24.5915C44.9284 24.7644 45.0544 25.3638 45.2263 26.4703H45.3638C45.3638 25.9401 45.7649 23.923 46.567 20.4422V20.3039C46.567 18.9668 46.6014 16.823 46.7045 13.8723C46.441 12.4661 46.3035 11.2905 46.3035 10.3915V8.65102C46.3035 7.80962 46.3378 6.77227 46.441 5.57356L46.3035 4.76674C46.3035 3.16462 47.6671 2.3578 50.4287 2.3578H51.0933C51.8267 2.3578 52.3309 2.92257 52.5601 4.09823C53.2591 10.2877 54.4279 16.8921 56.0207 23.923C56.0207 24.2919 56.1926 26.1015 56.5479 29.4094V30.7465C56.5479 31.9567 56.4447 32.9249 56.2843 33.6971C56.3874 34.1697 56.4218 34.6077 56.4218 35.0341C55.8259 41.627 55.2874 44.9465 54.829 44.9465C54.3248 47.0558 53.7289 48.6003 52.9612 49.6376C52.5945 51.4472 52.033 52.7497 51.2308 53.5219C48.962 55.5966 47.5067 56.7031 46.842 56.876C45.444 57.4062 44.6075 57.6828 44.3096 57.6828L43.3814 57.5445L41.5136 57.6828C40.8146 57.6828 39.9208 57.2448 38.8551 56.3458C37.0904 56.3458 35.8872 53.6948 35.2569 48.4389C35.085 47.9087 34.9934 46.7331 34.9934 44.9581V44.5547C34.9934 44.3241 35.0965 43.1139 35.2569 40.9355V39.4602C35.2569 38.054 36.2195 37.2126 38.1904 36.9129C39.4509 36.5441 40.6885 36.3827 41.9146 36.3827H42.4418C42.9116 36.3827 43.2095 37.5584 43.3699 39.8636C43.5074 40.3361 43.771 42.2379 44.1721 45.6266C44.5388 46.7331 44.6992 47.5399 44.6992 48.0355C47.6327 43.2753 49.088 38.7571 49.088 34.5039C49.0193 32.4638 48.8932 31.4265 48.6869 31.4265C46.991 32.6021 44.7221 33.1669 41.8917 33.1669H41.4907C38.2248 33.1669 35.933 31.0577 34.5694 26.8737C33.6756 25.0641 32.9995 21.5832 32.5755 16.4311C32.4724 11.9129 32.3463 7.41773 32.1744 3.03784C32.1744 2.36932 33.2745 1.86218 35.509 1.5625C38.4311 1.91981 39.8978 2.53069 39.8978 3.42972Z" fill="#008080"/>
<path d="M86.4561 3.36056C87.8884 3.36056 88.5874 3.8677 88.5874 4.83589C88.7249 4.83589 88.851 5.80408 88.9885 7.78656C89.5156 8.96222 89.8823 9.89583 90.0542 10.5989L89.7906 16.8921C90.0542 18.16 90.1917 19.7736 90.1917 21.71V21.8483C90.1917 22.9894 90.0542 23.8884 89.7906 24.5224C89.9625 25.3868 90.0542 26.5971 90.0542 28.1416V28.2799C90.0542 29.8589 89.9167 30.9885 89.6531 31.7607C89.7563 32.533 89.7906 33.0286 89.7906 33.2361C89.7906 37.0858 89.6187 39.6676 89.2635 41.0046C89.3666 42.7796 89.401 43.9207 89.401 44.4855C89.401 44.7852 89.2635 45.7303 89 47.2979L89.1375 49.1766C89.1375 51.6547 86.7081 53.3951 81.8151 54.3979C80.4171 54.3979 79.191 53.4643 78.0909 51.5855C77.7242 50.1448 76.8534 47.2633 75.4324 43.0102L73.4386 35.9101H73.2667C73.1635 36.8091 73.1292 37.4892 73.1292 37.9156V38.4458C73.3011 43.1369 73.3927 45.7073 73.3927 46.2144C73.1979 49.9604 72.9573 52.012 72.7281 52.3808C71.5249 53.1877 70.4363 53.5911 69.3935 53.5911C66.2996 53.5911 64.7297 51.8852 64.7297 48.4966C64.9932 44.6469 65.1308 42.4339 65.1308 41.9382C64.7641 39.2988 64.6036 37.5238 64.6036 36.5786C64.6036 36.2789 64.7068 35.6796 64.8672 34.6999L64.7297 33.8931C64.8328 32.994 64.8672 32.2564 64.8672 31.7492C64.8672 30.9078 64.7641 29.7783 64.6036 28.2683C65.0391 23.3467 65.4058 18.3559 65.6693 13.2614C65.5662 11.4518 65.5318 10.2186 65.5318 9.51547C65.5318 7.26789 65.9673 6.16139 66.8611 6.16139C67.3882 5.89629 68.0643 5.75797 68.8549 5.75797C72.4187 5.75797 74.1834 6.16139 74.1834 6.96821C74.3209 7.53299 74.8824 8.37439 75.9137 9.51547C76.3148 10.2531 76.7159 11.2905 77.1169 12.5929C78.0107 13.5957 78.4462 15.0364 78.4462 16.8806C79.5119 17.918 80.039 19.5201 80.039 21.6985C80.738 22.6667 81.3338 24.9488 81.7693 28.5334C82.0329 28.6026 82.1704 29.0982 82.1704 30.0088H82.3079C82.3079 29.3748 82.5371 26.8276 82.9725 22.3785C82.9725 20.0733 83.0069 18.7248 83.11 18.3559C83.0069 17.918 82.9725 17.3186 82.9725 16.6155V15.8087C82.9725 15.3361 83.0069 14.9327 83.11 14.5985C83.0069 14.1259 82.9725 13.6994 82.9725 13.2614V11.521C83.2361 9.55004 83.3736 8.23608 83.3736 7.63672V4.82436C83.3736 4.05212 84.1757 3.5565 85.7685 3.34903H86.4561V3.36056ZM82.0558 30.5505V30.9539H82.1933V30.5505H82.0558Z" fill="#008080"/>
<path d="M105.914 2.79578C110.176 2.79578 113.202 4.30569 114.966 7.34857C116.765 9.59615 118.496 12.8695 120.157 17.1227C121.12 20.2347 121.624 22.4131 121.624 23.681C121.624 24.1881 121.59 24.7875 121.486 25.5597C121.75 27.3347 121.887 28.545 121.887 29.1789C121.887 30.1471 121.75 31.5533 121.486 33.4666C121.59 34.2388 121.624 34.8036 121.624 35.207C121.097 37.0512 120.719 38.8608 120.558 40.6934C119.493 43.137 118.794 45.0503 118.427 46.4565C117.292 47.3555 116.525 48.4274 116.158 49.6722L114.29 50.8825C111.792 55.2739 109.397 57.4408 107.094 57.4408C105.994 57.4408 105.134 56.9336 104.561 55.9654C102.797 55.9654 101.593 55.4352 100.963 54.3633C100.161 51.7815 99.7371 48.9 99.634 45.6612C99.4621 44.7275 99.3704 43.0793 99.3704 40.705V39.0913C99.1069 36.4518 98.9694 34.2388 98.9694 32.533C98.9694 32.4638 99.0725 32.1642 99.2329 31.5994C99.061 30.7926 98.935 29.4209 98.8319 27.45C98.935 25.1678 99.0037 23.8654 99.0954 23.5657L98.8319 21.8253L99.0954 17.2725C98.9923 14.2988 98.9579 11.4749 98.9579 8.83543V7.09499C98.5912 5.98849 98.4308 5.31998 98.4308 5.08946C98.4308 3.75244 100.826 2.98019 105.627 2.8073H105.914V2.79578ZM107.105 7.75198L109.237 16.8576V19.5316C110.13 20.1655 110.566 21.5026 110.566 23.5542C110.566 23.6925 110.463 24.0613 110.302 24.6261C110.566 24.6261 110.738 25.26 110.829 26.5049V26.77C110.829 27.3693 110.795 27.911 110.692 28.3721L110.829 29.3057C110.726 30.4122 110.692 31.0115 110.692 31.0461C110.852 32.1526 110.956 33.0862 110.956 33.8585V42.2955C110.956 42.6644 110.852 43.0332 110.692 43.3675V43.5058H110.829C112.331 40.7972 113.098 38.515 113.098 36.6708C113.626 34.7575 113.901 32.314 113.901 29.3057V28.3721C113.901 20.6381 112.434 14.4371 109.512 9.75751L107.105 7.75198ZM110.165 44.8543V45.1194H110.302V44.8543H110.165ZM110.566 43.6441V43.9092H110.703V43.6441H110.566Z" fill="#008080"/>
<path d="M139.443 6.41493C139.809 6.25357 140.371 6.14984 141.104 6.14984C143.396 6.38036 145.527 6.55325 147.567 6.65698C148.862 7.36007 149.504 8.23605 149.504 9.30797C148.335 11.6823 146.009 12.858 142.548 12.858H140.978L140.348 12.9963V12.858L140.084 12.9963C139.913 12.8926 139.752 12.858 139.58 12.858C139.317 13.5265 139.179 14.1604 139.179 14.7367V15.0018C139.179 15.6704 139.214 16.5463 139.317 17.6413L138.686 19.4163C138.824 20.6611 138.984 21.2951 139.191 21.2951C139.385 21.2951 140.027 21.2605 141.127 21.1568C144.485 21.929 146.158 22.4938 146.158 22.7934C146.685 23.266 146.96 23.7616 146.96 24.3379C146.398 25.675 145.333 26.3435 143.728 26.3435C143.465 26.3435 142.159 26.7815 139.832 27.6113H139.328L139.466 27.8419C139.466 28.0724 139.431 28.2107 139.328 28.2107C139.431 29.2135 139.466 29.9165 139.466 30.3545V32.2679C139.466 32.8326 139.363 34.1466 139.202 36.1867C139.305 36.8552 139.466 37.4546 139.729 37.9617L139.592 39.4716V40.7049C139.592 43.8515 139.764 46.03 140.096 47.2633C139.993 48.1392 139.958 48.8077 139.958 49.3034V49.5339C139.958 50.041 140.256 50.3061 140.852 50.3061C142.422 50.3061 144.015 50.2024 145.642 50.041C147.705 50.041 148.736 50.5482 148.736 51.5509C147.831 54.0636 144.909 55.2393 139.947 55.1355C136.016 55.4352 133.255 55.0664 131.628 53.9945C130.665 49.5454 130.161 45.154 130.161 40.8317C130.161 39.4947 130.264 37.858 130.424 35.9101C130.253 35.3107 130.058 33.9391 129.897 31.7607L130.161 28.8446C130.058 28.6487 129.989 27.2079 129.897 24.5569L130.528 16.3504C130.367 15.8202 130.298 15.4514 130.298 15.2093V14.7022C130.298 14.2988 130.333 13.8953 130.436 13.4689C130.333 12.9041 130.264 12.5007 130.172 12.3278C130.275 11.6247 130.31 11.0254 130.31 10.5528V7.91332C130.31 7.21023 131.238 6.47256 133.14 5.76948C134.103 5.76948 134.573 5.7349 134.573 5.63116C137.082 5.87321 138.709 6.13831 139.443 6.41493Z" fill="#008080"/>
<path d="M173.946 3.60259C175.516 5.14709 176.639 8.36285 177.407 13.2499C177.51 14.829 177.544 15.7626 177.544 16.0623C176.845 23.024 176.215 26.5049 175.676 26.5049C175.676 26.8391 175.012 27.911 173.682 29.7206C172.181 30.9654 171.184 31.8645 170.749 32.3947L170.611 32.6598C172.903 35.2992 174.336 37.6851 174.874 39.7598C174.874 40.3246 175.539 41.8691 176.868 44.3126C176.868 44.6469 177.705 47.2978 179.4 52.2195C179.572 52.9226 179.664 53.6948 179.664 54.5016V54.905C179.664 56.1499 179.229 56.876 178.335 57.1872C177.097 57.556 176.135 57.752 175.401 57.8557C173.442 57.8557 172.067 56.6455 171.276 54.2365C170.749 52.7266 169.844 50.917 168.617 48.7501C168.113 46.5717 167.552 44.935 166.887 43.7939C166.624 43.16 166.486 42.722 166.486 42.4569H166.349C166.349 42.8257 166.245 43.7593 166.085 45.2693C166.119 46.3412 166.223 46.8714 166.349 46.8714C166.177 47.2402 166.085 47.9779 166.085 49.0152V51.5625C166.085 51.8622 166.051 52.2656 165.948 52.7727C166.314 53.7409 166.475 54.6169 166.475 55.4468C166.475 56.4495 165.375 57.0835 163.14 57.3255C161.146 57.3255 159.977 56.9221 159.679 56.1153C158.442 51.9313 157.812 46.2374 157.812 38.976L157.147 31.2075L157.411 28.7985C157.239 27.6229 157.147 26.4588 157.147 25.3177V24.1074C157.147 22.9664 157.181 21.7331 157.284 20.3615C157.181 19.9926 157.147 19.6584 157.147 19.2895L157.411 17.6874C157.239 16.4196 157.147 15.048 157.147 13.538C157.617 9.65377 158.247 7.07193 159.015 5.76949C159.278 5.76949 159.645 5.10098 160.08 3.76396C162.04 1.98895 164.045 1.08992 166.074 1.08992C166.108 1.08992 166.704 1.05534 167.804 0.951602C170.921 0.917024 172.983 1.82758 173.946 3.60259ZM164.893 11.0945C164.893 12.8695 165.122 15.2093 165.558 18.1946V18.8631C165.558 19.1628 165.524 19.5662 165.42 20.0733C165.787 21.249 165.948 22.8511 165.948 24.8912L166.085 25.4214C168.113 23.6464 169.145 20.0618 169.145 14.7022C169.145 10.1148 168.216 7.00278 166.349 5.3315H166.211C165.443 5.3315 165.008 7.03736 164.882 10.426V11.0945H164.893ZM166.223 42.042V42.3071H166.36V42.042H166.223Z" fill="#008080"/>
</svg>
