<svg width="50" height="50" viewBox="0 0 50 50" fill="none" xmlns="http://www.w3.org/2000/svg">
<g clip-path="url(#clip0)">
<path d="M33.4911 18.7364C33.0268 18.2718 32.4755 17.9033 31.8687 17.6519C31.262 17.4005 30.6116 17.2711 29.9548 17.2711C29.298 17.2711 28.6476 17.4005 28.0408 17.6519C27.434 17.9033 26.8827 18.2718 26.4184 18.7364L25.4548 19.7L24.4911 18.7364C23.5532 17.7985 22.2812 17.2715 20.9548 17.2715C19.6284 17.2715 18.3563 17.7985 17.4184 18.7364C16.4805 19.6743 15.9536 20.9463 15.9536 22.2727C15.9536 23.5991 16.4805 24.8712 17.4184 25.8091L18.3821 26.7727L25.4548 33.8454L32.5275 26.7727L33.4911 25.8091C33.9557 25.3448 34.3242 24.7935 34.5756 24.1867C34.827 23.5799 34.9564 22.9295 34.9564 22.2727C34.9564 21.6159 34.827 20.9655 34.5756 20.3588C34.3242 19.752 33.9557 19.2007 33.4911 18.7364V18.7364Z" stroke="#FAF8F8" stroke-width="2" stroke-linecap="round" stroke-linejoin="round"/>
</g>
<circle cx="25" cy="25" r="24" stroke="#FAF8F8" stroke-width="2"/>
<defs>
<clipPath id="clip0">
<rect width="21.8182" height="21.8182" fill="white" transform="translate(14.5457 14.5454)"/>
</clipPath>
</defs>
</svg>
