<svg width="32" height="32" viewBox="0 0 32 32" fill="none" xmlns="http://www.w3.org/2000/svg">
<g clip-path="url(#clip0)">
<path d="M21.4345 11.9913C21.1373 11.694 20.7845 11.4581 20.3961 11.2972C20.0078 11.1363 19.5916 11.0535 19.1712 11.0535C18.7508 11.0535 18.3346 11.1363 17.9463 11.2972C17.5579 11.4581 17.2051 11.694 16.9079 11.9913L16.2912 12.608L15.6745 11.9913C15.0742 11.391 14.2601 11.0538 13.4112 11.0538C12.5623 11.0538 11.7482 11.391 11.1479 11.9913C10.5477 12.5915 10.2104 13.4056 10.2104 14.2545C10.2104 15.1034 10.5477 15.9176 11.1479 16.5178L11.7647 17.1345L16.2912 21.6611L20.8177 17.1345L21.4345 16.5178C21.7318 16.2206 21.9676 15.8678 22.1285 15.4795C22.2894 15.0911 22.3723 14.6749 22.3723 14.2545C22.3723 13.8342 22.2894 13.4179 22.1285 13.0296C21.9676 12.6413 21.7318 12.2884 21.4345 11.9913V11.9913Z" stroke="#008080" stroke-linecap="round" stroke-linejoin="round"/>
</g>
<circle cx="16" cy="16" r="15.5" stroke="#008080"/>
<defs>
<clipPath id="clip0">
<rect width="13.9636" height="13.9636" fill="white" transform="translate(9.30933 9.30908)"/>
</clipPath>
</defs>
</svg>
