<svg width="109" height="36" viewBox="0 0 109 36" fill="none" xmlns="http://www.w3.org/2000/svg">
<path d="M7.16508 5.16874C7.2688 5.8119 7.32412 6.31674 7.32412 6.6971V7.74136C8.67254 5.5491 9.91723 4.44952 11.0997 4.44952C11.8465 4.60858 12.2268 4.93361 12.2268 5.41079C12.2268 5.9917 11.805 6.75934 10.9406 7.74136C10.4013 8.30152 10.1385 8.84786 10.1385 9.34578C9.49541 10.6321 9.09435 11.5726 8.93531 12.1604C11.0859 14.8506 12.1508 16.4412 12.1508 16.9046C12.372 17.2642 12.5518 17.9696 12.7109 18.9931C12.7109 19.0553 12.6901 19.0761 12.6279 19.0761C12.6279 19.4772 12.9321 20.5007 13.513 22.1328C13.513 23.2393 13.7758 24.7676 14.3151 26.7109C14.7369 27.9765 15.1173 29.7054 15.4423 31.9322C15.38 32.5546 15.1034 33.1978 14.6401 33.8617C14.2391 34.083 13.6582 34.242 12.8699 34.3458C11.0997 34.166 10.2215 33.6404 10.2215 32.7414C9.49541 31.1162 8.61722 28.101 7.57306 23.7372H7.41402C7.31029 24.2766 7.25497 24.6224 7.25497 24.7815C7.41402 25.8257 7.51774 26.7317 7.57306 27.5131C7.46934 29.2974 7.23423 30.2863 6.84699 30.4869C5.96188 30.6459 5.38102 30.8672 5.07676 31.13C4.97304 31.1923 4.87623 31.213 4.75868 31.213H4.35761C2.75334 30.8534 1.94429 30.5491 1.94429 30.3278C1.23897 29.5809 0.900138 28.4606 0.900138 26.953C0.837903 26.953 0.817158 26.8907 0.817158 26.7939C0.817158 26.7317 0.837903 26.7109 0.900138 26.7109C0.837903 25.6044 0.761838 24.6847 0.658114 23.9793L0.741093 23.4952C0.741093 23.4329 0.720349 23.3568 0.658114 23.2531L0.741093 22.852C0.678858 22.029 0.658114 21.2822 0.658114 20.6044C0.658114 20.5422 0.637369 20.5214 0.575134 20.5214L0.658114 20.3624V17.4716L0.741093 16.9876C0.699603 16.87 0.637369 16.1438 0.582049 14.816C0.741093 13.2255 0.962372 10.0719 1.22514 5.33472C1.34269 4.37345 1.82674 3.88935 2.67036 3.88935C3.95654 3.78562 4.59963 3.70955 4.59963 3.6473C5.7406 3.6473 6.59805 4.14523 7.16508 5.16874Z" fill="#FAF8F8"/>
<path d="M24.3695 2.45782C24.5493 2.45782 24.7083 3.23928 24.8535 4.78838C25.8769 9.38728 26.6998 12.8451 27.3429 15.1549C27.4051 15.2586 27.4812 15.6183 27.5849 16.2822H27.6679C27.6679 15.964 27.9099 14.7538 28.394 12.6653V12.5823C28.394 11.7801 28.4147 10.4938 28.477 8.72338C28.3179 7.87967 28.2349 7.17428 28.2349 6.63486V5.5906C28.2349 5.08576 28.2557 4.46335 28.3179 3.74412L28.2349 3.26003C28.2349 2.29876 29.0578 1.81466 30.7243 1.81466H31.1254C31.5679 1.81466 31.8722 2.15353 32.0105 2.85892C32.4323 6.57262 33.1376 10.5353 34.0988 14.7538C34.0988 14.9751 34.2025 16.0609 34.4169 18.0456V18.8479C34.4169 19.574 34.3547 20.1549 34.2579 20.6183C34.3201 20.9018 34.3408 21.1646 34.3408 21.4205C33.9813 25.3762 33.6563 27.3679 33.3797 27.3679C33.0754 28.6335 32.7158 29.5602 32.2525 30.1826C32.0312 31.2683 31.6924 32.0498 31.2084 32.5131C29.8392 33.758 28.961 34.4219 28.5599 34.5256C27.7163 34.8437 27.2115 35.0097 27.0317 35.0097L26.4716 34.9267L25.3445 35.0097C24.9227 35.0097 24.3833 34.7469 23.7402 34.2075C22.6753 34.2075 21.9492 32.6169 21.5689 29.4634C21.4652 29.1452 21.4099 28.4398 21.4099 27.3748V27.1328C21.4099 26.9945 21.4721 26.2683 21.5689 24.9613V24.0761C21.5689 23.2324 22.1498 22.7275 23.3391 22.5477C24.0998 22.3264 24.8466 22.2296 25.5865 22.2296H25.9046C26.1881 22.2296 26.3679 22.935 26.4647 24.3181C26.5477 24.6017 26.7067 25.7427 26.9488 27.7759C27.17 28.4398 27.2668 28.9239 27.2668 29.2213C29.0371 26.3651 29.9153 23.6542 29.9153 21.1024C29.8738 19.8783 29.7977 19.2559 29.6732 19.2559C28.6498 19.9613 27.2807 20.3001 25.5727 20.3001H25.3307C23.3599 20.3001 21.9769 19.0346 21.154 16.5242C20.6147 15.4385 20.2067 13.3499 19.9508 10.2586C19.8886 7.54772 19.8125 4.85062 19.7088 2.22269C19.7088 1.82158 20.3726 1.51729 21.7211 1.33748C23.4844 1.55187 24.3695 1.9184 24.3695 2.45782Z" fill="#FAF8F8"/>
<path d="M52.4649 2.41632C53.3292 2.41632 53.7511 2.72061 53.7511 3.30153C53.834 3.30153 53.9101 3.88244 53.9931 5.07193C54.3112 5.77732 54.5324 6.33749 54.6362 6.75934L54.4771 10.5353C54.6362 11.296 54.7191 12.2642 54.7191 13.426V13.509C54.7191 14.1936 54.6362 14.7331 54.4771 15.1134C54.5808 15.6321 54.6362 16.3582 54.6362 17.2849V17.3679C54.6362 18.3154 54.5532 18.9931 54.3941 19.4564C54.4564 19.9198 54.4771 20.2172 54.4771 20.3416C54.4771 22.6515 54.3734 24.2006 54.159 25.0028C54.2213 26.0678 54.242 26.7524 54.242 27.0913C54.242 27.2711 54.159 27.8382 54 28.7787L54.083 29.906C54.083 31.3928 52.617 32.4371 49.6643 33.0387C48.8207 33.0387 48.0808 32.4786 47.417 31.3513C47.1957 30.4869 46.6702 28.758 45.8127 26.2061L44.6095 21.9461H44.5058C44.4435 22.4855 44.4228 22.8935 44.4228 23.1494V23.4675C44.5265 26.2822 44.5818 27.8243 44.5818 28.1286C44.4643 30.3762 44.3191 31.6072 44.1808 31.8285C43.4547 32.3126 42.7978 32.5546 42.1685 32.5546C40.3015 32.5546 39.3541 31.5311 39.3541 29.4979C39.5132 27.1881 39.5962 25.8603 39.5962 25.5629C39.3749 23.9793 39.2781 22.9142 39.2781 22.3472C39.2781 22.1674 39.3403 21.8077 39.4371 21.2199L39.3541 20.7358C39.4164 20.1964 39.4371 19.7538 39.4371 19.4495C39.4371 18.9447 39.3749 18.2669 39.2781 17.361C39.5408 14.408 39.7621 11.4136 39.9212 8.35685C39.8589 7.2711 39.8382 6.53112 39.8382 6.10927C39.8382 4.76072 40.101 4.09682 40.6403 4.09682C40.9584 3.93776 41.3664 3.85478 41.8435 3.85478C43.9941 3.85478 45.059 4.09682 45.059 4.58092C45.142 4.91978 45.4808 5.42462 46.1031 6.10927C46.3451 6.55187 46.5872 7.17428 46.8292 7.95574C47.3686 8.5574 47.6313 9.42186 47.6313 10.5284C48.2744 11.1508 48.5925 12.112 48.5925 13.4191C49.0143 14 49.3739 15.3693 49.6367 17.5201C49.7957 17.5616 49.8787 17.8589 49.8787 18.4053H49.9617C49.9617 18.0249 50.1 16.4965 50.3627 13.8271C50.3627 12.444 50.3835 11.6349 50.4457 11.4136C50.3835 11.1508 50.3627 10.7912 50.3627 10.3693V9.8852C50.3627 9.60166 50.3835 9.35962 50.4457 9.15906C50.3835 8.87552 50.3627 8.61964 50.3627 8.35685V7.31259C50.5218 6.13002 50.6048 5.34164 50.6048 4.98202V3.29461C50.6048 2.83126 51.0888 2.53389 52.05 2.40941H52.4649V2.41632ZM49.8095 18.7303V18.9723H49.8925V18.7303H49.8095Z" fill="#FAF8F8"/>
<path d="M64.2065 2.07745C66.7788 2.07745 68.6044 2.9834 69.6693 4.80913C70.7549 6.15768 71.7991 8.12171 72.8017 10.6736C73.3826 12.5408 73.6869 13.8479 73.6869 14.6086C73.6869 14.9129 73.6661 15.2725 73.6039 15.7358C73.7629 16.8008 73.8459 17.527 73.8459 17.9073C73.8459 18.4882 73.7629 19.332 73.6039 20.4799C73.6661 20.9433 73.6869 21.2822 73.6869 21.5242C73.3688 22.6307 73.1406 23.7165 73.0438 24.816C72.4007 26.2822 71.9789 27.4302 71.7576 28.2739C71.073 28.8133 70.6097 29.4564 70.3884 30.2033L69.2613 30.9295C67.7538 33.5643 66.3086 34.8645 64.9187 34.8645C64.2549 34.8645 63.7363 34.5602 63.3905 33.9793C62.3256 33.9793 61.5995 33.6611 61.2192 33.018C60.7352 31.4689 60.4793 29.74 60.4171 27.7967C60.3134 27.2365 60.258 26.2476 60.258 24.823V23.8548C60.099 22.2711 60.016 20.9433 60.016 19.9198C60.016 19.8783 60.0782 19.6985 60.1751 19.3596C60.0713 18.8755 59.9953 18.0526 59.933 16.87C59.9953 15.5007 60.0368 14.7192 60.0921 14.5394L59.933 13.4952L60.0921 10.7635C60.0298 8.97925 60.0091 7.28492 60.0091 5.70124V4.65698C59.7878 3.99308 59.691 3.59198 59.691 3.45366C59.691 2.65145 61.1362 2.1881 64.0336 2.08437H64.2065V2.07745ZM64.9256 5.05117L66.2118 10.5145V12.1189C66.7512 12.4993 67.0139 13.3015 67.0139 14.5325C67.0139 14.6155 66.9517 14.8368 66.8549 15.1757C67.0139 15.1757 67.1177 15.556 67.173 16.3029V16.462C67.173 16.8216 67.1522 17.1466 67.09 17.4232L67.173 17.9834C67.1107 18.6473 67.09 19.0069 67.09 19.0277C67.1868 19.6916 67.249 20.2517 67.249 20.7151V25.7773C67.249 25.9986 67.1868 26.2199 67.09 26.4205V26.5035H67.173C68.0788 24.8783 68.5421 23.509 68.5421 22.4025C68.8602 21.2545 69.0262 19.7884 69.0262 17.9834V17.4232C69.0262 12.7828 68.1411 9.06224 66.3778 6.25449L64.9256 5.05117ZM66.7719 27.3126V27.4716H66.8549V27.3126H66.7719ZM67.0139 26.5864V26.7455H67.0969V26.5864H67.0139Z" fill="#FAF8F8"/>
<path d="M84.4396 4.24896C84.6609 4.15214 84.9997 4.0899 85.4423 4.0899C86.8252 4.22822 88.1114 4.33195 89.3423 4.39419C90.1237 4.81605 90.5109 5.34163 90.5109 5.98479C89.8056 7.40941 88.4019 8.1148 86.3136 8.1148H85.3662L84.9859 8.19779V8.1148L84.8268 8.19779C84.7231 8.13555 84.6263 8.1148 84.5226 8.1148C84.3635 8.51591 84.2806 8.89627 84.2806 9.24205V9.40111C84.2806 9.80221 84.3013 10.3278 84.3635 10.9848L83.9832 12.0498C84.0662 12.7967 84.163 13.177 84.2875 13.177C84.405 13.177 84.7923 13.1563 85.4561 13.0941C87.4822 13.5574 88.4918 13.8963 88.4918 14.0761C88.8098 14.3596 88.9758 14.657 88.9758 15.0028C88.637 15.805 87.9939 16.2061 87.0258 16.2061C86.8667 16.2061 86.0784 16.4689 84.6747 16.9668H84.3704L84.4534 17.1051C84.4534 17.2434 84.4327 17.3264 84.3704 17.3264C84.4327 17.9281 84.4534 18.3499 84.4534 18.6127V19.7607C84.4534 20.0996 84.3912 20.888 84.2944 22.112C84.3566 22.5131 84.4534 22.8728 84.6125 23.177L84.5295 24.083V24.823C84.5295 26.7109 84.6332 28.018 84.8338 28.758C84.7715 29.2835 84.7508 29.6846 84.7508 29.982V30.1203C84.7508 30.4246 84.9306 30.5837 85.2901 30.5837C86.2375 30.5837 87.1987 30.5214 88.1806 30.4246C89.4253 30.4246 90.0476 30.7289 90.0476 31.3306C89.5013 32.8382 87.738 33.5436 84.7439 33.4813C82.372 33.6611 80.7055 33.4398 79.7236 32.7967C79.1427 30.1272 78.8385 27.4924 78.8385 24.899C78.8385 24.0968 78.9007 23.1148 78.9975 21.9461C78.8938 21.5864 78.7763 20.7635 78.6794 19.4564L78.8385 17.7068C78.7762 17.5892 78.7348 16.7248 78.6794 15.1342L79.0598 10.2102C78.963 9.89212 78.9215 9.67082 78.9215 9.52559V9.2213C78.9215 8.97925 78.9422 8.73721 79.0044 8.48133C78.9422 8.14246 78.9007 7.90042 78.8454 7.79668C78.9076 7.37483 78.9284 7.01522 78.9284 6.73167V5.148C78.9284 4.72614 79.4885 4.28354 80.6364 3.86169C81.2172 3.86169 81.5007 3.84094 81.5007 3.7787C83.0151 3.92393 83.997 4.08299 84.4396 4.24896Z" fill="#FAF8F8"/>
<path d="M105.26 2.56155C106.208 3.48824 106.886 5.4177 107.349 8.34993C107.411 9.29737 107.432 9.85754 107.432 10.0373C107.01 14.2144 106.63 16.3029 106.305 16.3029C106.305 16.5035 105.904 17.1466 105.101 18.2324C104.196 18.9793 103.594 19.5187 103.331 19.8368L103.248 19.9958C104.631 21.5795 105.496 23.0111 105.821 24.2559C105.821 24.5947 106.222 25.5214 107.024 26.9875C107.024 27.1881 107.529 28.7787 108.552 31.7317C108.656 32.1535 108.711 32.6169 108.711 33.101V33.343C108.711 34.0899 108.448 34.5256 107.909 34.7123C107.162 34.9336 106.581 35.0512 106.139 35.1134C104.956 35.1134 104.126 34.3873 103.649 32.9419C103.331 32.036 102.785 30.9502 102.045 29.6501C101.741 28.343 101.402 27.361 101.001 26.6763C100.842 26.296 100.759 26.0332 100.759 25.8741H100.676C100.676 26.0954 100.614 26.6556 100.517 27.5615C100.538 28.2047 100.6 28.5228 100.676 28.5228C100.572 28.7441 100.517 29.1867 100.517 29.8091V31.3375C100.517 31.5173 100.496 31.7593 100.434 32.0636C100.655 32.6445 100.752 33.1701 100.752 33.668C100.752 34.2697 100.088 34.6501 98.7397 34.7953C97.5365 34.7953 96.8312 34.5532 96.6514 34.0692C95.9046 31.5588 95.5242 28.1425 95.5242 23.7856L95.1232 19.1245L95.2822 17.6791C95.1785 16.9737 95.1232 16.2752 95.1232 15.5906V14.8645C95.1232 14.1798 95.1439 13.4398 95.2062 12.6169C95.1439 12.3956 95.1232 12.195 95.1232 11.9737L95.2822 11.0124C95.1785 10.2517 95.1232 9.42877 95.1232 8.52282C95.4067 6.19225 95.787 4.64315 96.2503 3.86169C96.4094 3.86169 96.6306 3.46058 96.8934 2.65837C98.0759 1.59336 99.286 1.05394 100.51 1.05394C100.531 1.05394 100.89 1.03319 101.554 0.970954C103.435 0.950207 104.68 1.49654 105.26 2.56155ZM99.7977 7.05671C99.7977 8.12172 99.936 9.52559 100.199 11.3167V11.7178C100.199 11.8976 100.178 12.1397 100.116 12.444C100.337 13.1494 100.434 14.1107 100.434 15.3347L100.517 15.6528C101.741 14.5878 102.363 12.4371 102.363 9.2213C102.363 6.46888 101.803 4.60166 100.676 3.59889H100.593C100.13 3.59889 99.8668 4.62241 99.7908 6.6556V7.05671H99.7977ZM100.6 25.6252V25.7842H100.683V25.6252H100.6Z" fill="#FAF8F8"/>
</svg>
