<svg width="32" height="32" viewBox="0 0 32 32" fill="none" xmlns="http://www.w3.org/2000/svg">
<path d="M16 20C18.2091 20 20 18.2091 20 16C20 13.7909 18.2091 12 16 12C13.7909 12 12 13.7909 12 16C12 18.2091 13.7909 20 16 20Z" stroke="#008080" stroke-width="2" stroke-linecap="round" stroke-linejoin="round"/>
<path d="M25.8663 20C25.6889 20.4022 25.6359 20.8483 25.7143 21.2808C25.7928 21.7133 25.999 22.1124 26.3063 22.4267L26.3863 22.5067C26.6343 22.7543 26.831 23.0484 26.9652 23.3722C27.0994 23.6959 27.1684 24.0429 27.1684 24.3933C27.1684 24.7438 27.0994 25.0908 26.9652 25.4145C26.831 25.7382 26.6343 26.0323 26.3863 26.28C26.1387 26.5279 25.8446 26.7246 25.5208 26.8588C25.1971 26.993 24.8501 27.0621 24.4997 27.0621C24.1492 27.0621 23.8022 26.993 23.4785 26.8588C23.1548 26.7246 22.8607 26.5279 22.613 26.28L22.533 26.2C22.2188 25.8926 21.8197 25.6864 21.3871 25.608C20.9546 25.5296 20.5085 25.5825 20.1063 25.76C19.712 25.929 19.3757 26.2097 19.1387 26.5674C18.9018 26.9251 18.7747 27.3443 18.773 27.7733V28C18.773 28.7072 18.4921 29.3855 17.992 29.8856C17.4919 30.3857 16.8136 30.6667 16.1063 30.6667C15.3991 30.6667 14.7208 30.3857 14.2207 29.8856C13.7206 29.3855 13.4397 28.7072 13.4397 28V27.88C13.4294 27.4387 13.2865 27.0107 13.0297 26.6516C12.7729 26.2925 12.414 26.019 11.9997 25.8667C11.5975 25.6892 11.1514 25.6362 10.7189 25.7147C10.2864 25.7931 9.88725 25.9993 9.57301 26.3067L9.49301 26.3867C9.24535 26.6346 8.95124 26.8313 8.62751 26.9655C8.30379 27.0997 7.95678 27.1688 7.60634 27.1688C7.2559 27.1688 6.90889 27.0997 6.58517 26.9655C6.26144 26.8313 5.96734 26.6346 5.71967 26.3867C5.47174 26.139 5.27505 25.8449 5.14085 25.5212C5.00665 25.1974 4.93758 24.8504 4.93758 24.5C4.93758 24.1496 5.00665 23.8026 5.14085 23.4788C5.27505 23.1551 5.47174 22.861 5.71967 22.6133L5.79967 22.5333C6.10706 22.2191 6.31325 21.82 6.39168 21.3874C6.47011 20.9549 6.41716 20.5088 6.23967 20.1067C6.07066 19.7123 5.79001 19.376 5.43229 19.1391C5.07457 18.9022 4.65539 18.775 4.22634 18.7733H3.99967C3.29243 18.7733 2.61415 18.4924 2.11406 17.9923C1.61396 17.4922 1.33301 16.8139 1.33301 16.1067C1.33301 15.3994 1.61396 14.7211 2.11406 14.221C2.61415 13.7209 3.29243 13.44 3.99967 13.44H4.11967C4.561 13.4297 4.98901 13.2868 5.34807 13.03C5.70713 12.7732 5.98063 12.4143 6.13301 12C6.31049 11.5978 6.36344 11.1517 6.28501 10.7192C6.20659 10.2867 6.00039 9.88757 5.69301 9.57333L5.61301 9.49333C5.36507 9.24567 5.16838 8.95157 5.03418 8.62784C4.89998 8.30411 4.83091 7.95711 4.83091 7.60666C4.83091 7.25622 4.89998 6.90922 5.03418 6.58549C5.16838 6.26176 5.36507 5.96766 5.61301 5.72C5.86067 5.47206 6.15477 5.27537 6.4785 5.14117C6.80223 5.00697 7.14923 4.9379 7.49967 4.9379C7.85012 4.9379 8.19712 5.00697 8.52085 5.14117C8.84458 5.27537 9.13868 5.47206 9.38634 5.72L9.46634 5.8C9.78058 6.10738 10.1797 6.31358 10.6122 6.392C11.0447 6.47043 11.4909 6.41749 11.893 6.24H11.9997C12.394 6.07098 12.7304 5.79034 12.9673 5.43262C13.2042 5.0749 13.3313 4.65571 13.333 4.22667V4C13.333 3.29275 13.614 2.61448 14.1141 2.11438C14.6142 1.61428 15.2924 1.33333 15.9997 1.33333C16.7069 1.33333 17.3852 1.61428 17.8853 2.11438C18.3854 2.61448 18.6663 3.29275 18.6663 4V4.12C18.6681 4.54905 18.7952 4.96823 19.0321 5.32595C19.269 5.68367 19.6053 5.96431 19.9997 6.13333C20.4018 6.31082 20.8479 6.36376 21.2805 6.28534C21.713 6.20691 22.1121 6.00071 22.4263 5.69333L22.5063 5.61333C22.754 5.36539 23.0481 5.1687 23.3718 5.03451C23.6956 4.90031 24.0426 4.83123 24.393 4.83123C24.7434 4.83123 25.0905 4.90031 25.4142 5.03451C25.7379 5.1687 26.032 5.36539 26.2797 5.61333C26.5276 5.86099 26.7243 6.1551 26.8585 6.47882C26.9927 6.80255 27.0618 7.14956 27.0618 7.5C27.0618 7.85044 26.9927 8.19744 26.8585 8.52117C26.7243 8.8449 26.5276 9.139 26.2797 9.38666L26.1997 9.46666C25.8923 9.7809 25.6861 10.18 25.6077 10.6125C25.5292 11.0451 25.5822 11.4912 25.7597 11.8933V12C25.9287 12.3944 26.2093 12.7307 26.5671 12.9676C26.9248 13.2045 27.344 13.3316 27.773 13.3333H27.9997C28.7069 13.3333 29.3852 13.6143 29.8853 14.1144C30.3854 14.6145 30.6663 15.2928 30.6663 16C30.6663 16.7072 30.3854 17.3855 29.8853 17.8856C29.3852 18.3857 28.7069 18.6667 27.9997 18.6667H27.8797C27.4506 18.6684 27.0314 18.7955 26.6737 19.0324C26.316 19.2693 26.0354 19.6056 25.8663 20V20Z" stroke="#008080" stroke-width="2" stroke-linecap="round" stroke-linejoin="round"/>
</svg>
