<svg width="145" height="47" viewBox="0 0 145 47" fill="none" xmlns="http://www.w3.org/2000/svg">
<path d="M8.88718 6.55832C9.02548 7.41586 9.09924 8.08898 9.09924 8.59613V9.98847C10.8971 7.06547 12.5567 5.59935 14.1333 5.59935C15.1291 5.81143 15.6362 6.24481 15.6362 6.88105C15.6362 7.6556 15.0738 8.67911 13.9213 9.98847C13.2021 10.7354 12.8517 11.4638 12.8517 12.1277C11.9943 13.8428 11.4595 15.0968 11.2475 15.8806C14.1149 19.4675 15.5347 21.5883 15.5347 22.2061C15.8298 22.6856 16.0695 23.6261 16.2816 24.9908C16.2816 25.0738 16.2539 25.1014 16.1709 25.1014C16.1709 25.6362 16.5766 27.0009 17.3511 29.177C17.3511 30.6524 17.7014 32.6902 18.4206 35.2812C18.983 36.9686 19.4901 39.2739 19.9234 42.243C19.8405 43.0728 19.4717 43.9304 18.8539 44.8156C18.3192 45.1106 17.5447 45.3227 16.4936 45.461C14.1333 45.2213 12.9624 44.5205 12.9624 43.3218C11.9943 41.1549 10.8234 37.1346 9.43116 31.3163H9.2191C9.0808 32.0355 9.00704 32.4965 9.00704 32.7086C9.2191 34.101 9.3574 35.3089 9.43116 36.3508C9.29286 38.7298 8.97938 40.0484 8.46306 40.3158C7.28291 40.5279 6.50844 40.823 6.10276 41.1733C5.96446 41.2563 5.83538 41.284 5.67864 41.284H5.14389C3.00486 40.8045 1.92613 40.3988 1.92613 40.1037C0.9857 39.1079 0.533924 37.6141 0.533924 35.604C0.450944 35.604 0.423284 35.521 0.423284 35.3919C0.423284 35.3089 0.450944 35.2812 0.533924 35.2812C0.450944 33.8059 0.349525 32.5795 0.211226 31.639L0.321864 30.9935C0.321864 30.9106 0.294205 30.8091 0.211226 30.6708L0.321864 30.136C0.238885 29.0387 0.211226 28.0429 0.211226 27.1392C0.211226 27.0562 0.183565 27.0286 0.100586 27.0286L0.211226 26.8165V22.9622L0.321864 22.3167C0.266544 22.16 0.183566 21.1918 0.109806 19.4214C0.321864 17.3006 0.616902 13.0959 0.96726 6.77962C1.124 5.49792 1.76939 4.85247 2.89423 4.85247C4.60913 4.71415 5.46659 4.61272 5.46659 4.52974C6.98787 4.52974 8.13114 5.19363 8.88718 6.55832Z" fill="#008080"/>
<path d="M31.8265 2.94375C32.0663 2.94375 32.2783 3.9857 32.4719 6.05117C33.8365 12.183 34.9337 16.7935 35.7911 19.8732C35.8741 20.0115 35.9755 20.491 36.1138 21.3762H36.2244C36.2244 20.9521 36.5471 19.3384 37.1925 16.5537V16.4431C37.1925 15.3734 37.2202 13.6584 37.3032 11.2978C37.0911 10.1729 36.9805 9.23236 36.9805 8.51314V7.12079C36.9805 6.44767 37.0081 5.61779 37.0911 4.65883L36.9805 4.01337C36.9805 2.73167 38.0777 2.08621 40.2997 2.08621H40.8344C41.4245 2.08621 41.8302 2.53803 42.0146 3.47856C42.577 8.43015 43.5174 13.7137 44.799 19.3384C44.799 19.6335 44.9373 21.0811 45.2231 23.7275V24.7971C45.2231 25.7653 45.1401 26.5399 45.011 27.1577C45.094 27.5357 45.1217 27.8861 45.1217 28.2273C44.6422 33.5016 44.2089 36.1572 43.8401 36.1572C43.4344 37.8446 42.955 39.0802 42.3373 39.9101C42.0422 41.3578 41.5904 42.3997 40.945 43.0175C39.1195 44.6773 37.9486 45.5625 37.4138 45.7008C36.289 46.1249 35.6159 46.3462 35.3762 46.3462L34.6294 46.2356L33.1266 46.3462C32.5641 46.3462 31.845 45.9959 30.9875 45.2766C29.5677 45.2766 28.5996 43.1558 28.0925 38.9511C27.9542 38.527 27.8804 37.5864 27.8804 36.1664V35.8437C27.8804 35.6593 27.9634 34.6911 28.0925 32.9484V31.7681C28.0925 30.6432 28.8669 29.97 30.4528 29.7303C31.467 29.4352 32.4627 29.3061 33.4492 29.3061H33.8734C34.2514 29.3061 34.4911 30.2467 34.6202 32.0908C34.7308 32.4689 34.9429 33.9903 35.2656 36.7012C35.5606 37.5864 35.6897 38.2319 35.6897 38.6284C38.05 34.8202 39.2209 31.2056 39.2209 27.8031C39.1656 26.171 39.0642 25.3412 38.8982 25.3412C37.5337 26.2817 35.7081 26.7335 33.4308 26.7335H33.1081C30.4804 26.7335 28.6364 25.0461 27.5393 21.6989C26.8201 20.2513 26.2761 17.4666 25.935 13.3449C25.852 9.73029 25.7506 6.13416 25.6123 2.63024C25.6123 2.09543 26.4974 1.68972 28.2953 1.44997C30.6464 1.73582 31.8265 2.22452 31.8265 2.94375Z" fill="#008080"/>
<path d="M69.2865 2.88842C70.439 2.88842 71.0014 3.29414 71.0014 4.06869C71.1121 4.06869 71.2135 4.84324 71.3241 6.42923C71.7482 7.36975 72.0433 8.11664 72.1816 8.67911L71.9695 13.7137C72.1816 14.728 72.2922 16.0189 72.2922 17.568V17.6786C72.2922 18.5915 72.1816 19.3107 71.9695 19.8179C72.1078 20.5094 72.1816 21.4776 72.1816 22.7132V22.8239C72.1816 24.0871 72.0709 24.9908 71.8589 25.6086C71.9418 26.2264 71.9695 26.6229 71.9695 26.7888C71.9695 29.8686 71.8312 31.9341 71.5454 33.0037C71.6284 34.4237 71.656 35.3366 71.656 35.7884C71.656 36.0281 71.5454 36.7842 71.3333 38.0383L71.444 39.5413C71.444 41.5237 69.4893 42.9161 65.5524 43.7183C64.4276 43.7183 63.4411 42.9714 62.556 41.4684C62.2609 40.3158 61.5602 38.0106 60.4169 34.6081L58.8127 28.9281H58.6744C58.5914 29.6473 58.5637 30.1913 58.5637 30.5325V30.9567C58.702 34.7095 58.7758 36.7658 58.7758 37.1715C58.619 40.1683 58.4254 41.8096 58.241 42.1047C57.2729 42.7501 56.397 43.0728 55.558 43.0728C53.0687 43.0728 51.8055 41.7082 51.8055 38.9972C52.0176 35.9175 52.1282 34.1471 52.1282 33.7506C51.8332 31.639 51.7041 30.219 51.7041 29.4629C51.7041 29.2231 51.7871 28.7437 51.9162 27.9599L51.8055 27.3144C51.8885 26.5952 51.9162 26.0051 51.9162 25.5993C51.9162 24.9262 51.8332 24.0226 51.7041 22.8147C52.0545 18.8774 52.3495 14.8847 52.5616 10.8091C52.4786 9.36145 52.4509 8.37482 52.4509 7.81235C52.4509 6.01429 52.8013 5.12909 53.5204 5.12909C53.9445 4.91701 54.4885 4.80636 55.1247 4.80636C57.9921 4.80636 59.412 5.12909 59.412 5.77455C59.5226 6.22637 59.9744 6.89949 60.8042 7.81235C61.1269 8.40249 61.4496 9.23236 61.7723 10.2743C62.4914 11.0765 62.8418 12.2291 62.8418 13.7045C63.6992 14.5343 64.1233 15.816 64.1233 17.5588C64.6858 18.3333 65.1652 20.1591 65.5156 23.0267C65.7276 23.0821 65.8382 23.4786 65.8382 24.207H65.9489C65.9489 23.6999 66.1333 21.6621 66.4836 18.1028C66.4836 16.2586 66.5113 15.1798 66.5943 14.8847C66.5113 14.5343 66.4836 14.0549 66.4836 13.4924V12.8469C66.4836 12.4689 66.5113 12.1461 66.5943 11.8787C66.5113 11.5007 66.4836 11.1595 66.4836 10.8091V9.41678C66.6957 7.84001 66.8063 6.78884 66.8063 6.30936V4.05947C66.8063 3.44168 67.4517 3.04518 68.7333 2.8792H69.2865V2.88842ZM65.746 24.6404V24.9631H65.8567V24.6404H65.746Z" fill="#008080"/>
<path d="M84.9425 2.4366C88.3723 2.4366 90.8064 3.64453 92.2262 6.07884C93.6738 7.8769 95.066 10.4956 96.4029 13.8981C97.1773 16.3877 97.583 18.1305 97.583 19.1448C97.583 19.5505 97.5554 20.03 97.4724 20.6478C97.6844 22.0678 97.7951 23.036 97.7951 23.5431C97.7951 24.3177 97.6844 25.4426 97.4724 26.9733C97.5554 27.5911 97.583 28.0429 97.583 28.3656C97.1589 29.8409 96.8546 31.2886 96.7256 32.7547C95.8681 34.7095 95.3057 36.2402 95.0107 37.3651C94.0979 38.0844 93.4801 38.9419 93.1851 39.9378L91.6823 40.906C89.6723 44.4191 87.7453 46.1526 85.8921 46.1526C85.007 46.1526 84.3155 45.7469 83.8545 44.9723C82.4347 44.9723 81.4666 44.5482 80.9595 43.6906C80.3141 41.6252 79.9729 39.32 79.89 36.7289C79.7517 35.982 79.6779 34.6634 79.6779 32.7639V31.473C79.4659 29.3615 79.3552 27.5911 79.3552 26.2264C79.3552 26.171 79.4382 25.9313 79.5673 25.4795C79.429 24.834 79.3276 23.7367 79.2446 22.16C79.3276 20.3343 79.3829 19.2923 79.4566 19.0526L79.2446 17.6602L79.4566 14.018C79.3737 11.639 79.346 9.3799 79.346 7.26832V5.87598C79.051 4.99078 78.9219 4.45597 78.9219 4.27155C78.9219 3.20193 80.8488 2.58414 84.712 2.44582H84.9425V2.4366ZM85.9014 6.40156L87.6163 13.686V15.8253C88.3354 16.3324 88.6858 17.402 88.6858 19.0433C88.6858 19.154 88.6028 19.4491 88.4737 19.9009C88.6858 19.9009 88.8241 20.408 88.8978 21.4039V21.616C88.8978 22.0954 88.8702 22.5288 88.7872 22.8976L88.8978 23.6445C88.8149 24.5297 88.7872 25.0092 88.7872 25.0369C88.9163 25.9221 88.9993 26.669 88.9993 27.2868V34.0364C88.9993 34.3315 88.9163 34.6266 88.7872 34.894V35.0046H88.8978C90.1057 32.8377 90.7234 31.012 90.7234 29.5367C91.1475 28.006 91.3688 26.0512 91.3688 23.6445V22.8976C91.3688 16.7105 90.1886 11.7497 87.8375 8.00599L85.9014 6.40156ZM88.3631 36.0835V36.2955H88.4737V36.0835H88.3631ZM88.6858 35.1153V35.3273H88.7964V35.1153H88.6858Z" fill="#008080"/>
<path d="M111.919 5.33195C112.214 5.20286 112.666 5.11987 113.256 5.11987C115.1 5.30429 116.815 5.4426 118.456 5.52559C119.498 6.08806 120.015 6.78884 120.015 7.64638C119.074 9.54587 117.202 10.4864 114.418 10.4864H113.155L112.648 10.597V10.4864L112.436 10.597C112.297 10.5141 112.168 10.4864 112.03 10.4864C111.818 11.0212 111.707 11.5284 111.707 11.9894V12.2015C111.707 12.7363 111.735 13.4371 111.818 14.313L111.311 15.7331C111.422 16.7289 111.551 17.2361 111.717 17.2361C111.873 17.2361 112.39 17.2084 113.275 17.1254C115.976 17.7432 117.322 18.195 117.322 18.4348C117.746 18.8128 117.968 19.2093 117.968 19.6704C117.516 20.74 116.659 21.2748 115.368 21.2748C115.156 21.2748 114.105 21.6252 112.233 22.2891H111.827L111.938 22.4735C111.938 22.6579 111.91 22.7686 111.827 22.7686C111.91 23.5708 111.938 24.1332 111.938 24.4836V26.0143C111.938 26.4661 111.855 27.5173 111.726 29.1494C111.809 29.6842 111.938 30.1637 112.15 30.5694L112.039 31.7773V32.7639C112.039 35.2812 112.178 37.024 112.445 38.0106C112.362 38.7114 112.334 39.2462 112.334 39.6427V39.8271C112.334 40.2328 112.574 40.4449 113.054 40.4449C114.317 40.4449 115.598 40.3619 116.907 40.2328C118.567 40.2328 119.397 40.6385 119.397 41.4408C118.668 43.4509 116.317 44.3914 112.325 44.3084C109.163 44.5482 106.941 44.2531 105.631 43.3956C104.857 39.8363 104.451 36.3232 104.451 32.8654C104.451 31.7958 104.534 30.4864 104.663 28.9281C104.525 28.4486 104.368 27.3513 104.239 25.6086L104.451 23.2757C104.368 23.1189 104.313 21.9663 104.239 19.8456L104.746 13.2803C104.617 12.8562 104.562 12.5611 104.562 12.3675V11.9617C104.562 11.639 104.59 11.3163 104.673 10.9751C104.59 10.5233 104.534 10.2006 104.461 10.0622C104.544 9.49977 104.571 9.02028 104.571 8.64223V6.53066C104.571 5.96819 105.318 5.37805 106.848 4.81558C107.623 4.81558 108.001 4.78792 108.001 4.70493C110.02 4.89857 111.329 5.11065 111.919 5.33195Z" fill="#008080"/>
<path d="M139.681 3.08206C140.945 4.31766 141.848 6.89027 142.466 10.7999C142.549 12.0632 142.577 12.81 142.577 13.0498C142.014 18.6192 141.507 21.4039 141.074 21.4039C141.074 21.6713 140.539 22.5288 139.469 23.9765C138.262 24.9723 137.459 25.6916 137.109 26.1157L136.998 26.3278C138.842 28.4394 139.995 30.3481 140.428 32.0078C140.428 32.4597 140.963 33.6952 142.033 35.6501C142.033 35.9175 142.706 38.0383 144.07 41.9756C144.208 42.538 144.282 43.1558 144.282 43.8013V44.124C144.282 45.1199 143.932 45.7008 143.213 45.9497C142.217 46.2448 141.442 46.4016 140.852 46.4846C139.276 46.4846 138.169 45.5164 137.533 43.5892C137.109 42.3813 136.381 40.9336 135.394 39.2001C134.989 37.4573 134.537 36.148 134.002 35.2351C133.79 34.728 133.679 34.3776 133.679 34.1655H133.569C133.569 34.4606 133.486 35.2075 133.357 36.4154C133.384 37.2729 133.467 37.6971 133.569 37.6971C133.43 37.9922 133.357 38.5823 133.357 39.4122V41.45C133.357 41.6897 133.329 42.0124 133.246 42.4182C133.541 43.1927 133.67 43.8935 133.67 44.5574C133.67 45.3596 132.785 45.8668 130.987 46.0604C129.383 46.0604 128.442 45.7377 128.203 45.0922C127.207 41.745 126.7 37.1899 126.7 31.3808L126.165 25.166L126.377 23.2388C126.239 22.2983 126.165 21.367 126.165 20.4541V19.4859C126.165 18.5731 126.193 17.5864 126.276 16.4892C126.193 16.1941 126.165 15.9267 126.165 15.6316L126.377 14.3499C126.239 13.3356 126.165 12.2384 126.165 11.0304C126.543 7.923 127.05 5.85754 127.668 4.81558C127.88 4.81558 128.175 4.28077 128.525 3.21115C130.102 1.79115 131.715 1.07192 133.347 1.07192C133.375 1.07192 133.854 1.04426 134.74 0.96127C137.247 0.933607 138.907 1.66205 139.681 3.08206ZM132.398 9.07561C132.398 10.4956 132.582 12.3674 132.932 14.7556V15.2905C132.932 15.5302 132.905 15.8529 132.822 16.2586C133.117 17.1992 133.246 18.4809 133.246 20.113L133.357 20.5371C134.989 19.1171 135.818 16.2494 135.818 11.9617C135.818 8.29184 135.071 5.80221 133.569 4.46519H133.458C132.84 4.46519 132.49 5.82987 132.388 8.5408V9.07561H132.398ZM133.467 33.8336V34.0456H133.578V33.8336H133.467Z" fill="#008080"/>
</svg>
